<svg width="467" height="249" viewBox="0 0 467 249" fill="none" xmlns="http://www.w3.org/2000/svg">
<path d="M360.372 237.752C357.035 242.081 353.114 245.297 353.974 246.757C353.974 246.757 355.751 248.049 360.652 248.049C369.058 248.049 377.316 247.409 375.96 246.557C374.082 245.377 368.639 244.951 363.44 243.151C362.155 242.705 366.252 240.216 365.134 239.809C362.816 238.967 361.012 238.237 360.372 237.752Z" fill="#3A415B"/>
<path d="M446.967 246.5C446.967 246.5 448.071 248.049 452.309 248.049C459.577 248.049 467.15 247.063 465.978 246.325C464.354 245.307 451.617 242.648 451.617 242.648L448.761 239.101L443.918 241.781L446.967 246.5Z" fill="#3A415B"/>
<path d="M423.943 139.401C418.731 139.401 414.79 138.36 414.46 138.271C411.742 137.528 410.139 134.724 410.88 132.005C411.62 129.289 414.416 127.691 417.131 128.419C417.308 128.467 428.784 131.407 435.482 125.659C439.966 121.809 441.668 114.563 440.544 104.116L440.187 100.784L450.506 94.9373C452.962 93.5479 456.074 94.4093 457.462 96.8613C458.851 99.3133 457.988 102.428 455.536 103.816L450.974 106.401C451.695 118.705 448.706 127.797 442.07 133.453C436.474 138.221 429.49 139.401 423.943 139.401Z" fill="#C48D68"/>
<path d="M441.603 111.085C441.409 118.508 439.437 123.877 435.696 127.085C428.349 133.393 415.764 130.177 415.548 130.12C412.565 129.315 409.497 131.076 408.685 134.055C407.871 137.039 409.631 140.12 412.615 140.935C412.976 141.031 417.308 143.193 423.027 142.989C444.739 142.219 457.843 123.489 458.084 112.571L441.603 111.085Z" fill="#D2EBED"/>
<path d="M411.75 85.1133C409.805 84.2413 407.893 83.2973 406.01 82.3066C388.019 92.552 365.033 105.677 364.578 106.135C364.578 106.135 376.002 124.325 376.733 125.055C377.201 125.524 405.529 105.203 425.909 90.4786C421.206 88.6586 416.358 87.18 411.75 85.1133Z" fill="#208CB9"/>
<path d="M412.043 84.5906C416.754 86.668 421.703 88.1773 426.493 90.0586C437.713 81.9506 446.386 75.64 446.386 75.64L427.209 70.252C427.209 70.252 417.981 75.4906 406.611 81.964C408.395 82.8946 410.202 83.7773 412.043 84.5906Z" fill="#00A7D0"/>
<path d="M378.984 60.7108L390.275 91.2774L412.347 99.3774L384.388 48.3054L378.984 60.7108Z" fill="#3A6992"/>
<path d="M413.549 106.885H397.195L411.751 132.312L433.939 141.667L413.549 106.885Z" fill="#3A6992"/>
<path d="M383.416 55.4826L382.007 56.3093L378.179 115.625L408.316 97.9573L383.416 55.4826ZM433.939 141.667L420.92 119.459L365.228 152.109L354.276 133.427L361.154 22.3546L386.182 7.68262L431.228 84.5266L446.386 75.64L458.991 97.1426L443.834 106.028L456.852 128.235L433.939 141.667Z" fill="#2E7AA8"/>
<path d="M335.762 128.344L354.276 133.427L365.228 152.109L345.666 147.153L335.762 128.344Z" fill="#208CB9"/>
<path d="M335.762 128.344L354.276 133.427L361.154 22.3547L344.167 18.2893L335.762 128.344Z" fill="#00A7D0"/>
<path d="M344.167 18.2894L361.154 22.3547L386.182 7.68272L368.979 2.6814L344.167 18.2894Z" fill="#03BFE1"/>
<path d="M381.415 172.604C381.415 172.604 384.136 201.956 384.136 212.237C384.136 212.237 362.763 228.896 357.529 237.609C359.777 239.32 364.22 241.591 367.131 241.503C381.391 227.885 397.043 218.167 397.043 218.167C397.043 218.167 403.796 198.581 405.897 181.997L381.415 172.604Z" fill="#3A415B"/>
<path d="M396.647 173.989C401.46 174.024 406.378 173.195 410.518 170.948C409.128 165.085 412.087 147.792 415.804 138.549C415.804 138.549 418.735 132.115 416.68 130.139C409.078 122.825 402.607 123.424 400.595 123.344C393.616 129.235 380.631 146.62 381.151 169.596C384.738 173.364 392.022 173.959 396.647 173.989Z" fill="#D2EBED"/>
<path d="M443.792 242.588C446.575 241.815 449.243 240.528 450.955 238.252C442.702 224.867 412.439 175.703 410.8 171.855C410.758 171.755 410.72 171.64 410.682 171.528C406.238 173.924 400.934 174.768 395.794 174.571C391.315 174.399 384.834 173.771 381.178 170.456C381.187 170.693 381.188 170.927 381.199 171.167C381.831 184 424.402 226.789 441.154 243.151C442.076 243.016 442.972 242.815 443.792 242.588Z" fill="#404A71"/>
<path d="M355.915 160.683C354.732 160.683 353.596 160.513 352.512 160.148C350.261 159.396 347.284 157.5 345.877 152.755C345.077 150.052 346.617 147.211 349.32 146.412C352.023 145.609 354.861 147.153 355.661 149.855C355.756 150.169 355.844 150.369 355.907 150.487C356.451 150.511 358.472 150.333 363.391 147.443C367.785 144.861 372.984 141.016 378.012 137.297C386.507 131.011 394.529 125.076 401.156 122.979C403.841 122.128 406.709 123.62 407.56 126.305C408.411 128.992 406.921 131.86 404.236 132.708C399.232 134.292 391.529 139.992 384.081 145.5C373.176 153.568 363.56 160.683 355.915 160.683Z" fill="#C68E69"/>
<path d="M365.461 156.867C364.836 153.861 364.181 150.544 362.279 148.076C358.165 150.355 356.408 150.508 355.907 150.487C355.844 150.369 355.756 150.169 355.661 149.855C354.861 147.153 352.023 145.609 349.32 146.412C346.617 147.211 345.077 150.052 345.877 152.755C347.284 157.5 350.261 159.396 352.512 160.148C353.596 160.513 354.732 160.683 355.915 160.683C358.879 160.683 362.14 159.609 365.659 157.828C365.592 157.508 365.528 157.188 365.461 156.867Z" fill="#C68E69"/>
<path d="M407.56 126.305C406.71 123.62 403.842 122.128 401.156 122.979C394.53 125.076 386.507 131.011 378.012 137.297C372.984 141.016 367.786 144.861 363.391 147.443C363.191 147.563 363.002 147.667 362.81 147.776C364.718 150.297 368.02 162.729 368.079 163.013C373.488 160.183 399.443 140.424 405.07 134.461C407.004 132.412 408.411 128.992 407.56 126.305Z" fill="#D2EBED"/>
<path d="M348.698 156.56C348.397 156.56 348.091 156.469 347.827 156.281C343.823 153.419 341.735 147.912 341.647 147.68C341.359 146.904 341.751 146.039 342.529 145.748C343.305 145.461 344.169 145.852 344.459 146.628C344.478 146.677 346.323 151.519 349.573 153.839C350.247 154.32 350.403 155.257 349.921 155.929C349.629 156.341 349.167 156.56 348.698 156.56Z" fill="#C48D68"/>
<path d="M348.701 152.901C348.23 152.901 347.766 152.68 347.474 152.265C345.559 149.552 344.025 143.104 343.855 142.38C343.669 141.573 344.17 140.765 344.977 140.579C345.787 140.385 346.591 140.893 346.779 141.7C347.202 143.516 348.59 148.64 349.925 150.533C350.405 151.211 350.243 152.148 349.566 152.625C349.303 152.812 349.001 152.901 348.701 152.901Z" fill="#C48D68"/>
<path d="M350.771 152.057C350.179 152.057 349.617 151.705 349.38 151.123C348.005 147.752 347.469 140.685 347.447 140.385C347.385 139.56 348.005 138.841 348.832 138.779C349.663 138.711 350.377 139.339 350.44 140.164C350.581 142.073 351.167 147.557 352.159 149.989C352.472 150.757 352.104 151.633 351.337 151.945C351.151 152.021 350.96 152.057 350.771 152.057Z" fill="#C48D68"/>
<path d="M353.023 151.333C352.354 151.333 351.746 150.885 351.57 150.208C350.626 146.541 351.486 142.803 351.524 142.645C351.714 141.839 352.526 141.341 353.328 141.528C354.135 141.719 354.635 142.527 354.446 143.333C354.43 143.404 353.727 146.547 354.476 149.459C354.684 150.263 354.199 151.081 353.398 151.287C353.272 151.32 353.146 151.333 353.023 151.333Z" fill="#C48D68"/>
<path d="M413.36 134.461C412.672 134.461 411.974 134.312 411.311 134C408.914 132.867 407.888 130.003 409.023 127.607C410.207 125.099 412.347 122.531 412.587 122.245C414.3 120.219 417.327 119.964 419.355 121.675C421.38 123.383 421.639 126.409 419.932 128.437C419.331 129.151 418.195 130.672 417.706 131.711C416.886 133.445 415.159 134.461 413.36 134.461Z" fill="#C48D68"/>
<path d="M414.052 131.989C414.62 132.617 415.216 133.208 415.836 133.771C416.623 133.3 417.284 132.601 417.705 131.711C418.195 130.672 419.331 129.151 419.932 128.437C421.639 126.409 421.38 123.383 419.355 121.675C417.327 119.964 414.3 120.219 412.587 122.245C412.492 122.36 412.101 122.828 411.591 123.505C411.635 126.531 411.952 129.675 414.052 131.989Z" fill="#C48D68"/>
<path d="M429.823 126.691C427.912 131.325 422.605 133.536 417.969 131.625C417.321 131.357 416.72 131.024 416.171 130.635C412.796 128.241 411.392 123.757 413.035 119.768L415.437 113.943C417.349 109.305 422.657 107.096 427.293 109.008C431.928 110.919 434.137 116.227 432.225 120.861L429.823 126.691Z" fill="#C48D68"/>
<path d="M414.052 119.091C413.313 122.211 408.832 121.211 407.149 119.581C404.83 117.339 403.446 110.992 408.585 111.331C404.884 105.744 417.436 99.6854 418.753 106.141C419.734 104.476 420.737 102.98 422.92 102.839C424.492 102.739 427.245 103.955 427.017 105.881C429.352 104.036 432.752 104.179 435.061 106.044C435.8 106.641 437.132 107.969 436.465 108.937C436.098 109.472 434.206 109.636 433.574 109.828C434.666 109.333 439.14 110.331 438.258 112.191C437.849 113.057 435.66 112.279 435.02 112.093C435.02 112.093 435.013 112.297 435.02 112.289C437.409 113.599 438.393 114.927 438.106 117.901C437.974 119.268 437.328 121.852 435.701 122.047C434.868 122.145 433.906 121.62 433.92 120.748C435.917 122.74 433.089 128.073 430.569 125.443C429.581 124.412 430.057 122.683 430.994 121.792C429.504 120.935 426.269 116.401 428.57 115.188C427.494 115.213 422.514 113.524 424.098 112.091C424.517 113.752 422.46 115.904 420.822 115.049C421.841 117.265 418.846 118.919 417.006 118.997C418.133 120.415 414.661 122.096 413.601 120.041L414.052 119.091Z" fill="#404A71"/>
<path d="M243.456 100.968C243.456 100.968 240.542 89.812 254.999 87.1614L253.898 100.567L243.456 100.968Z" fill="#C08259"/>
<path d="M185.528 129.139C182.361 129.139 179.419 128.497 176.705 127.213C163.573 121.008 162.113 102.364 162.059 101.573C161.861 98.7614 163.979 96.3227 166.791 96.124C169.596 95.9294 172.032 98.0387 172.237 100.844C172.523 104.596 174.667 114.981 181.087 117.997C186.389 120.487 194.613 117.953 204.872 110.667C207.169 109.033 210.356 109.576 211.987 111.872C213.619 114.172 213.079 117.357 210.78 118.989C201.265 125.745 192.811 129.139 185.528 129.139Z" fill="#BDD9DC"/>
<path d="M212.681 138.713C214.099 134.989 215.415 131.208 216.947 127.527C215.915 127.445 214.873 127.312 213.815 127.112C208.865 126.167 204.674 124.153 201.243 121.071C197.807 117.989 195.157 114.084 193.287 109.36C191.417 104.633 190.329 99.2627 190.025 93.2401C189.717 87.2214 190.203 80.8667 191.481 74.1747C192.785 67.3521 194.682 61.2347 197.173 55.8161C199.663 50.3987 202.647 45.8374 206.13 42.1347C209.609 38.4321 213.513 35.7814 217.841 34.1814C222.166 32.5827 226.806 32.2521 231.755 33.1987C235.675 33.9481 239.127 35.4254 242.131 37.6067C243.578 34.7201 245.133 31.8867 246.613 29.0601C248.362 25.7174 249.985 22.3121 251.539 18.8774C252.203 17.4081 252.779 15.8961 253.382 14.3961C248.365 11.5361 242.743 9.50674 236.51 8.31608C227.679 6.62941 219.366 6.94808 211.575 9.27341C203.779 11.5987 196.763 15.4907 190.521 20.9534C184.277 26.4174 178.978 33.2761 174.631 41.5254C170.279 49.7774 167.137 58.9881 165.195 69.1534C163.251 79.3228 162.778 89.0441 163.783 98.3161C164.783 107.588 167.181 115.915 170.971 123.295C174.761 130.675 179.847 136.883 186.238 141.915C192.186 146.601 199.194 149.836 207.261 151.623C209.171 147.361 211.019 143.081 212.681 138.713Z" fill="#00A7D0"/>
<path d="M281.788 61.996C280.784 52.7226 278.39 44.3946 274.6 37.016C270.81 29.636 265.72 23.4306 259.335 18.396C257.615 17.0413 255.804 15.812 253.908 14.7C253.31 16.1986 252.739 17.7093 252.063 19.172C250.478 22.5946 248.891 26.012 247.136 29.3533C245.64 32.1973 244.072 35.0506 242.618 37.9586C243.135 38.3533 243.639 38.764 244.128 39.2013C247.559 42.2853 250.244 46.1946 252.182 50.932C254.119 55.6693 255.248 61.0173 255.567 66.9706C255.884 72.9253 255.392 79.312 254.09 86.1346C252.812 92.8266 250.92 98.9133 248.418 104.395C245.915 109.88 242.887 114.467 239.34 118.156C235.792 121.847 231.856 124.495 227.53 126.091C224.34 127.271 221.019 127.76 217.567 127.571C215.868 131.599 214.439 135.748 212.891 139.825C211.359 143.86 209.638 147.815 207.864 151.751C208.263 151.833 208.66 151.917 209.063 151.995C217.891 153.683 226.2 153.361 233.995 151.036C241.787 148.713 248.806 144.82 255.05 139.357C261.295 133.893 266.588 127.036 270.939 118.784C275.288 110.536 278.435 101.325 280.378 91.1573C282.319 80.992 282.788 71.2693 281.788 61.996Z" fill="#3A6992"/>
<path d="M229.409 132.412C234.225 133.331 238.794 132.992 243.122 131.391C247.447 129.795 251.385 127.145 254.933 123.456C258.478 119.765 261.506 115.18 264.01 109.695C266.514 104.213 268.405 98.1254 269.682 91.4348C270.985 84.6108 271.477 78.2254 271.158 72.2694C270.841 66.3161 269.71 60.9694 267.775 56.2321C265.837 51.4934 263.15 47.5841 259.721 44.5014C256.286 41.4201 252.163 39.4174 247.349 38.4987C242.397 37.5521 237.757 37.8827 233.433 39.4801C229.103 41.0814 225.201 43.7307 221.721 47.4347C218.239 51.1374 215.254 55.6974 212.765 61.1147C210.273 66.5334 208.377 72.6507 207.074 79.4747C205.795 86.1667 205.309 92.5214 205.615 98.5401C205.921 104.561 207.007 109.932 208.879 114.659C210.75 119.383 213.399 123.289 216.834 126.369C220.265 129.453 224.457 131.467 229.409 132.412ZM224.654 157.295C215.825 155.607 208.215 152.245 201.829 147.213C195.438 142.183 190.353 135.973 186.563 128.593C182.771 121.213 180.375 112.888 179.374 103.613C178.37 94.3427 178.845 84.6214 180.786 74.4534C182.727 64.2881 185.87 55.0774 190.223 46.8254C194.571 38.5761 199.869 31.7161 206.113 26.2534C212.357 20.7907 219.371 16.8974 227.167 14.5721C234.959 12.2481 243.27 11.9281 252.101 13.6147C260.929 15.3014 268.535 18.6627 274.925 23.6947C281.313 28.7307 286.402 34.9347 290.193 42.3147C293.983 49.6947 296.375 58.0227 297.381 67.2947C298.381 76.5694 297.913 86.2907 295.97 96.4561C294.027 106.624 290.881 115.833 286.531 124.084C282.181 132.336 276.886 139.193 270.642 144.656C264.399 150.12 257.379 154.013 249.587 156.336C241.793 158.659 233.483 158.981 224.654 157.295Z" fill="#2E7AA8"/>
<path d="M314.671 82.3628L315.06 101.121C315.06 101.121 309.703 105.923 304.904 101.121L306.674 79.9961L314.671 82.3628Z" fill="#404A71"/>
<path d="M292.576 232.005C292.27 231.763 290.179 230.789 289.89 230.547C288.767 232.229 287.982 233.156 286.632 234.552C289.939 237.435 289.088 240.937 289.088 240.937C289.088 240.937 286.75 242.951 285.834 243.404C282.916 244.841 277.532 246.839 277.532 246.839L291.088 247.901L301.143 237.601C297.58 235.612 294.848 233.803 292.576 232.005Z" fill="#3A415B"/>
<path d="M239.464 232.74C237.306 232.361 234.58 234.016 232.823 232.74C232.416 236.511 232.493 238.568 232.493 238.568L212.438 246.839H238.051C238.281 244.109 237.792 241.489 238.16 238.961C238.348 237.661 239.228 233.992 239.464 232.74Z" fill="#3A415B"/>
<path d="M262.811 141.711L240.148 184.773C240.148 184.773 249.331 192.541 258.372 195.131L275.362 144.393L262.811 141.711Z" fill="#BDD9DC"/>
<path d="M287.627 235.631C288.985 234.24 290.108 232.581 291.227 230.896C285.364 225.872 282.496 220.695 274.529 211.787C271.235 208.099 279.965 186.984 282.084 183.443C285.893 177.079 286.481 172.464 289.46 161.571L267.327 169.839C262.059 188.711 255.92 207.585 262.075 216.588C268.577 226.107 280.117 233.773 285.687 237.601C285.899 237.748 287.441 235.489 287.627 235.631Z" fill="#3A415B"/>
<path d="M250.359 98.7532C250.055 98.7532 249.751 98.6626 249.485 98.4719C248.811 97.9892 248.658 97.0506 249.141 96.3786C250.923 93.8932 251.315 91.8492 251.319 91.8292C251.47 91.0186 252.245 90.4746 253.061 90.6186C253.873 90.7639 254.417 91.5332 254.277 92.3466C254.257 92.4559 253.793 95.0452 251.581 98.1266C251.287 98.5359 250.826 98.7532 250.359 98.7532Z" fill="#C48D68"/>
<path d="M287.888 166.133C294.476 148.044 300.102 119.659 302.208 108.331C301.031 107.841 299.876 107.473 298.96 107.219C297.006 106.68 294.663 106.044 292.659 106.667C291.642 106.984 290.736 107.508 289.848 108.065C289.027 110.524 288.688 112.596 288.688 112.596C288.688 112.596 274.536 139.648 265.316 158.096C273.147 159.852 280.806 162.424 287.888 166.133Z" fill="#E8DF9B"/>
<path d="M265.051 158.651C265.047 158.648 265.044 158.648 265.04 158.645C264.224 160.281 263.448 161.847 262.728 163.312H262.721C260.908 166.527 258.953 169.497 257.06 172.352C238.851 199.807 231.973 221.691 230.759 232.047C232.497 233.404 239.073 234.172 241.264 234.552C244.624 217.385 253.365 206.427 269.028 193.479C274.269 189.145 278.191 183.64 281.636 179.071C283.689 176.347 285.727 171.979 287.683 166.691C280.584 162.969 272.896 160.401 265.051 158.651Z" fill="#404A71"/>
<path d="M247.38 166.203C245.266 166.203 243.29 164.88 242.559 162.771C241.636 160.107 243.046 157.2 245.708 156.279C251.9 154.133 261.395 145.669 267.798 136.591C280.79 118.169 289.911 107.956 290.294 107.528C292.175 105.432 295.402 105.256 297.499 107.139C299.595 109.019 299.771 112.245 297.89 114.341C297.8 114.443 288.751 124.585 276.138 142.472C269.818 151.432 258.644 162.593 249.051 165.919C248.499 166.112 247.935 166.203 247.38 166.203Z" fill="#C48D68"/>
<path d="M298.626 110.021C298.509 110.021 298.39 110.016 298.27 110.008C295.626 109.812 293.639 107.513 293.831 104.867C294.034 102.101 295.105 98.9348 295.227 98.5814C296.093 96.0748 298.826 94.7441 301.334 95.6107C303.839 96.4747 305.17 99.2054 304.307 101.712C304.006 102.595 303.494 104.423 303.411 105.567C303.226 108.093 301.119 110.019 298.626 110.021Z" fill="#C48D68"/>
<path d="M300.032 104.955C300.881 105.931 301.808 106.8 302.79 107.593C303.136 106.989 303.357 106.305 303.412 105.567C303.494 104.423 304.006 102.595 304.308 101.712C305.17 99.2054 303.84 96.4747 301.334 95.6107C299.254 94.8907 297.024 95.6881 295.826 97.4094C296.269 100.121 298.484 103.177 300.032 104.955Z" fill="#C18359"/>
<path d="M312.406 94.5573C312.294 99.5693 308.139 103.543 303.125 103.431C298.111 103.317 294.139 99.1626 294.251 94.1493L294.393 87.8479C294.505 82.8333 298.661 78.8613 303.674 78.9733C308.687 79.0866 312.659 83.2413 312.547 88.2546L312.406 94.5573Z" fill="#C48D68"/>
<path d="M240.175 164.795C238.082 164.795 235.686 164.232 233.004 163.104C232.242 162.784 231.882 161.904 232.202 161.14C232.524 160.375 233.403 160.016 234.167 160.336C238.118 161.997 241.262 162.235 243.263 161.024C243.974 160.593 244.895 160.823 245.324 161.531C245.752 162.24 245.527 163.161 244.816 163.591C243.491 164.393 241.94 164.795 240.175 164.795Z" fill="#C48D68"/>
<path d="M241.972 166.976C239.584 166.976 237.668 166.513 235.488 165.984L234.812 165.823C234.007 165.631 233.51 164.82 233.703 164.013C233.895 163.208 234.706 162.705 235.512 162.904L236.195 163.068C239.834 163.948 242.24 164.531 247.561 163.156C248.368 162.951 249.183 163.432 249.39 164.235C249.596 165.039 249.114 165.857 248.311 166.065C245.747 166.727 243.732 166.976 241.972 166.976Z" fill="#C48D68"/>
<path d="M240.072 161.839C235.362 161.839 232.134 158.94 231.973 158.792C231.362 158.232 231.319 157.284 231.879 156.672C232.438 156.063 233.383 156.021 233.995 156.576C234.145 156.711 237.596 159.752 242.24 158.557C243.047 158.349 243.862 158.833 244.068 159.636C244.275 160.437 243.792 161.257 242.988 161.464C241.97 161.727 240.991 161.839 240.072 161.839Z" fill="#C48D68"/>
<path d="M243.218 160.227C243.159 160.227 243.101 160.221 243.042 160.216C237.93 159.617 235.853 155.937 235.766 155.781C235.367 155.055 235.634 154.143 236.361 153.743C237.082 153.347 237.989 153.607 238.391 154.325C238.462 154.448 239.879 156.823 243.39 157.235C244.214 157.331 244.803 158.076 244.706 158.899C244.618 159.661 243.97 160.227 243.218 160.227Z" fill="#C48D68"/>
<path d="M261.153 100.919C261.073 100.919 260.99 100.912 260.907 100.897C258.422 100.487 251.627 99.4172 250.047 99.4172C249.218 99.4172 248.546 98.7452 248.546 97.9159C248.546 97.0879 249.218 96.4146 250.047 96.4146C252.159 96.4146 260.458 97.7799 261.397 97.9372C262.214 98.0719 262.769 98.8439 262.633 99.6625C262.511 100.396 261.874 100.919 261.153 100.919Z" fill="#C48D68"/>
<path d="M260.192 104.069C260.062 104.069 259.927 104.053 259.796 104.016C259.724 103.997 252.587 102.055 249.267 101.865C248.439 101.819 247.807 101.109 247.855 100.281C247.902 99.4534 248.616 98.8014 249.438 98.8694C253.074 99.076 260.283 101.039 260.587 101.121C261.387 101.34 261.858 102.165 261.639 102.964C261.458 103.632 260.852 104.069 260.192 104.069Z" fill="#C48D68"/>
<path d="M259.47 107.369C259.315 107.369 259.16 107.347 259.008 107.3C252.251 105.117 250.584 104.984 249.691 104.912C249.303 104.881 248.938 104.851 248.439 104.72C247.639 104.507 247.16 103.687 247.371 102.885C247.584 102.084 248.406 101.608 249.207 101.817C249.446 101.881 249.618 101.895 249.93 101.92C251.019 102.007 252.839 102.155 259.93 104.443C260.718 104.696 261.151 105.543 260.898 106.332C260.692 106.967 260.103 107.369 259.47 107.369Z" fill="#C48D68"/>
<path d="M256.501 109.773C256.466 109.773 256.429 109.771 256.393 109.768C249.625 109.284 249.343 105.611 249.334 105.192L252.335 105.121C252.335 105.121 252.339 105.087 252.327 105.024C252.33 105.04 252.639 106.492 256.607 106.776C257.433 106.833 258.055 107.552 257.997 108.377C257.939 109.169 257.282 109.773 256.501 109.773Z" fill="#C48D68"/>
<path d="M250.833 107.972C250.833 107.972 249.531 107.369 247.501 107.369C245.795 107.369 243.475 104.473 243.475 101.468C243.475 101.468 242.832 94.6294 248.256 95.4561C249.327 95.6187 250.572 96.0054 251.996 96.6147L250.833 107.972Z" fill="#C48D68"/>
<path d="M280.292 134.312L267.178 198.88C267.178 198.88 287.487 203.773 299.944 196.599L303.095 106.885C303.095 106.885 289.155 102.007 280.292 134.312Z" fill="#BDD9DC"/>
<path d="M283.328 169.839L295.891 169.164C295.891 169.164 296.192 188.375 288.688 187.625C288.688 187.625 278.419 189.869 283.328 169.839Z" fill="#D2EBED"/>
<path d="M299.102 105.351C297.723 104.113 295.945 103.433 294.093 103.433C291.965 103.433 289.926 104.34 288.507 105.924C288.123 106.353 278.946 116.617 265.837 135.205C264.978 136.421 264.034 137.664 263.029 138.899L261.695 140.533L263.149 142.065C264.695 143.7 266.319 145.295 267.889 146.833C268.741 147.669 269.591 148.505 270.433 149.349L272.287 151.208L273.973 149.195C275.478 147.401 276.866 145.604 278.101 143.857C290.637 126.081 299.589 116.047 299.679 115.945C302.439 112.867 302.181 108.112 299.102 105.351Z" fill="#D2EBED"/>
<path d="M272.778 152.268L259.572 140.404L264.642 134.763L277.848 146.625L272.778 152.268Z" fill="#F0F8FD"/>
<path d="M285.138 98.1612L296.676 102.683C296.676 102.683 301.583 78.8092 298.002 75.2292C298.002 75.2292 285.138 74.0106 285.138 98.1612Z" fill="#404A71"/>
<path d="M298.668 79.3867C299.078 79.996 308.03 85.9707 315.06 84.3174C315.06 84.3174 313.859 73.764 297.448 75.284L298.668 79.3867Z" fill="#404A71"/>
<path d="M305.582 90.6413C305.582 93.4133 303.334 95.6599 300.563 95.6599C297.793 95.6599 295.546 93.4133 295.546 90.6413C295.546 87.8706 297.793 85.6252 300.563 85.6252C303.334 85.6252 305.582 87.8706 305.582 90.6413Z" stroke="#CDCF71" stroke-width="1.15733" stroke-miterlimit="10"/>
<path d="M316.914 91.6252C316.914 94.0359 314.96 95.9906 312.55 95.9906C310.139 95.9906 308.186 94.0359 308.186 91.6252C308.186 89.2146 310.139 87.2612 312.55 87.2612C314.96 87.2612 316.914 89.2146 316.914 91.6252Z" stroke="#CDCF71" stroke-width="1.00667" stroke-miterlimit="10"/>
<path d="M305.582 90.6414C305.582 90.6414 307.247 89.9907 308.239 90.9827" stroke="#CDCF71" stroke-width="1.15733" stroke-miterlimit="10"/>
<path d="M159.593 99.4307C159.476 99.4307 159.36 99.4254 159.24 99.416C156.593 99.2227 154.607 96.9214 154.8 94.276C155.003 91.5107 156.073 88.344 156.195 87.992C157.06 85.4854 159.795 84.1534 162.303 85.02C164.807 85.8854 166.139 88.6147 165.276 91.12C164.973 92.004 164.463 93.832 164.379 94.9774C164.195 97.5027 162.087 99.4294 159.593 99.4307Z" fill="#C08259"/>
<path d="M156.743 232.711C164.696 236.383 171.224 236.307 171.751 236.383C176.936 227.153 192.56 202.161 178.347 181.651L158.244 170.847C158.244 170.847 178.347 191.82 156.743 232.711Z" fill="#3A415B"/>
<path d="M167.148 240.88C167.148 240.88 169.006 237.112 170.456 234.581C169.367 234.448 164.499 234.251 162.499 233.481C160.622 237.315 156.531 242.932 153.642 246.784H180.655L167.148 240.88Z" fill="#3A415B"/>
<path d="M200.566 182.852C197.206 176.331 172.806 156.693 170.594 145.415C170.399 144.417 170.231 143.391 170.086 142.341C166.167 144.415 161.081 144.976 157.049 145.183C152.477 145.415 149.745 145.697 145.319 143.544C145.695 150.544 144.555 157.303 148.639 164.393C156.743 178.461 183.671 190.508 186.675 195.156C192.598 204.328 194.646 224.237 196.663 236.383C199.834 236.383 207.351 236.245 210.441 235.148C209.398 228.919 211.09 203.281 200.566 182.852Z" fill="#404A71"/>
<path d="M208.975 239.789C208.975 239.789 208.099 236.237 207.836 234.581C204.745 235.667 202.947 234.573 199.767 234.581C200.249 237.593 199.892 243.224 200.171 246.528H225.784L208.975 239.789Z" fill="#3A415B"/>
<path d="M157.237 148.867C161.138 148.688 169.331 147.601 172.619 144.315C171.946 138.961 169.553 130.347 170.395 123.415C173.251 99.9093 161.775 92.864 161.775 92.864C161.775 92.864 156.491 89.1693 152.209 93.5826C145.753 100.232 139.454 119.036 140.085 146.836C144.535 149.133 152.559 149.081 157.237 148.867Z" fill="#BDD9DC"/>
<path d="M216.095 156.287C215.714 156.287 215.326 156.245 214.938 156.153C196.443 151.861 180.781 140.781 169.642 124.107C161.297 111.615 158.414 100.403 158.294 99.932C157.605 97.1987 159.262 94.4254 161.995 93.7387C164.726 93.0494 167.497 94.7027 168.189 97.432C168.242 97.636 170.899 107.721 178.321 118.727C188.114 133.243 201.209 142.492 217.245 146.213C219.99 146.849 221.698 149.591 221.062 152.336C220.515 154.693 218.417 156.287 216.095 156.287Z" fill="#C48D68"/>
<path d="M204.854 140.956C194.663 136.131 185.987 128.481 179.069 118.221C171.737 107.352 169.085 97.3067 169.062 97.2107C168.386 94.5441 165.994 92.6814 163.247 92.6814C162.753 92.6814 162.257 92.7427 161.775 92.8641C160.221 93.2561 158.911 94.2294 158.089 95.6067C157.266 96.9827 157.029 98.5974 157.421 100.152L157.446 100.263C158.235 103.697 161.39 115.779 168.894 127.008C177.875 140.456 190.062 150.521 204.135 156.12C204.242 156.161 204.355 156.183 204.469 156.183C204.645 156.183 204.822 156.131 204.973 156.027C205.219 155.86 205.367 155.581 205.367 155.281V141.768C205.367 141.419 205.167 141.104 204.854 140.956Z" fill="#D2EBED"/>
<path d="M219.885 156.651C218.251 156.651 216.515 156.469 214.681 156.101C213.867 155.94 213.341 155.148 213.503 154.336C213.665 153.524 214.455 152.995 215.269 153.159C219.739 154.052 223.467 153.727 226.352 152.191C227.084 151.8 227.992 152.079 228.381 152.809C228.771 153.541 228.493 154.451 227.761 154.839C225.495 156.047 222.86 156.651 219.885 156.651Z" fill="#C48D68"/>
<path d="M220.098 153.292C219.383 153.292 218.647 153.245 217.9 153.136C217.08 153.016 216.512 152.252 216.632 151.432C216.751 150.612 217.511 150.044 218.334 150.164C223.134 150.867 227.578 148.375 227.623 148.349C228.343 147.94 229.258 148.188 229.67 148.907C230.082 149.625 229.835 150.539 229.118 150.953C228.928 151.06 224.99 153.292 220.098 153.292Z" fill="#C48D68"/>
<path d="M218.765 150.339C218.532 150.339 218.295 150.331 218.051 150.315C217.223 150.263 216.595 149.552 216.647 148.724C216.699 147.896 217.413 147.268 218.24 147.32C221.791 147.539 223.653 145.383 223.671 145.361C224.193 144.716 225.139 144.62 225.781 145.143C226.424 145.664 226.524 146.609 226 147.252C225.893 147.385 223.437 150.339 218.765 150.339Z" fill="#C48D68"/>
<path d="M213.577 147.807C212.749 147.807 212.075 147.136 212.075 146.307C212.075 145.481 212.743 144.809 213.569 144.807C213.702 144.805 216.666 144.737 218.362 142.295C218.834 141.612 219.769 141.445 220.45 141.917C221.131 142.388 221.301 143.323 220.827 144.005C218.218 147.765 213.763 147.807 213.577 147.807Z" fill="#C48D68"/>
<path d="M208.669 113.935C208.201 113.935 207.741 113.719 207.448 113.309C205.235 110.227 204.769 107.639 204.751 107.528C204.609 106.713 205.157 105.937 205.975 105.796C206.788 105.655 207.567 106.203 207.708 107.021C207.711 107.031 208.104 109.076 209.887 111.56C210.369 112.235 210.216 113.172 209.541 113.653C209.279 113.844 208.972 113.935 208.669 113.935Z" fill="#C48D68"/>
<path d="M208.983 114.599C208.89 114.599 208.794 114.591 208.698 114.573C205.416 113.943 198.902 113.935 198.835 113.935C198.007 113.935 197.335 113.263 197.335 112.435C197.335 111.607 198.007 110.935 198.835 110.935C199.114 110.935 205.7 110.943 209.263 111.625C210.078 111.779 210.611 112.565 210.455 113.38C210.318 114.099 209.688 114.599 208.983 114.599Z" fill="#C48D68"/>
<path d="M198.012 117.724C197.266 117.724 196.619 117.167 196.524 116.409C196.422 115.585 197.006 114.836 197.828 114.735C198.782 114.615 207.211 113.588 209.938 114.073C210.754 114.216 211.298 114.995 211.152 115.812C211.008 116.628 210.227 117.175 209.414 117.027C207.695 116.724 201.623 117.287 198.199 117.711C198.136 117.719 198.074 117.724 198.012 117.724Z" fill="#C48D68"/>
<path d="M199.963 121.117C199.258 121.117 198.63 120.62 198.491 119.901C198.334 119.085 198.867 118.3 199.682 118.143C203.317 117.443 204.287 117.133 206.047 116.565C206.871 116.3 207.898 115.972 209.427 115.527C210.222 115.297 211.057 115.755 211.287 116.549C211.518 117.347 211.059 118.18 210.262 118.409C208.775 118.841 207.814 119.151 206.967 119.421C205.157 120.005 204.063 120.357 200.25 121.091C200.153 121.109 200.057 121.117 199.963 121.117Z" fill="#C48D68"/>
<path d="M203.195 123.503C202.478 123.503 201.843 122.987 201.718 122.255C201.579 121.437 202.128 120.661 202.944 120.524C207.806 119.691 208.774 117.877 208.779 117.86C209.039 117.071 209.887 116.643 210.675 116.904C211.462 117.164 211.888 118.013 211.63 118.8C211.436 119.38 210.14 122.336 203.451 123.481C203.364 123.495 203.28 123.503 203.195 123.503Z" fill="#C48D68"/>
<path d="M208.98 121.695L207.836 109.464C207.836 109.464 213.201 109.855 213.191 115.476C213.187 117.355 212.645 119.445 208.98 121.695Z" fill="#C48D68"/>
<path d="M175.207 81.8466C176.561 86.9666 173.508 92.2186 168.387 93.572C163.264 94.9266 158.015 91.8746 156.659 86.7519L154.956 80.3146C153.601 75.1933 156.655 69.9426 161.776 68.5879C166.899 67.2319 172.148 70.2853 173.504 75.408L175.207 81.8466Z" fill="#C08259"/>
<path d="M174.307 78.4441C173.58 80.4748 172.547 82.4881 170.964 83.8561C167.103 87.1881 161.183 88.0868 156.484 86.0894L156.659 86.7521C158.015 91.8748 163.264 94.9268 168.387 93.5721C173.508 92.2188 176.562 86.9668 175.207 81.8468L174.307 78.4441Z" fill="#404A71"/>
<path d="M156.631 86.3986C153.028 84.0853 149.137 75.2933 154.828 73.3679C158.349 72.1773 156.931 83.0306 156.931 86.0986L156.631 86.3986Z" fill="#404A71"/>
<path d="M153.739 74.0934C149.384 70.9388 154.78 62.0134 165.539 62.0134C172.19 62.0134 172.14 67.1081 167.542 69.8574C163.726 72.1388 157.807 70.8028 154.94 74.6934L153.739 74.0934Z" fill="#404A71"/>
<path d="M174.305 80.4119C172.78 78.0999 169.776 73.4159 168.608 70.7786C167.867 69.1039 166.852 66.2479 170.207 68.2772C173.016 69.9746 174.54 75.9612 174.276 78.9959L174.305 80.4119Z" fill="#404A71"/>
<path d="M98.2747 101.753C96.6187 103.285 94.796 104.715 93.3027 106.423L71.6387 151.677L87.7653 130.86L104.895 95.4507C102.704 97.568 100.512 99.6854 98.2747 101.753Z" fill="#3A6992"/>
<path d="M85.4257 94.3239C86.9977 92.1745 88.5097 89.6492 90.2977 87.4279L52.3777 68.9146L16.4004 72.5172L79.439 101.587C81.507 99.2292 83.5844 96.8425 85.4257 94.3239Z" fill="#3A6992"/>
<path d="M90.8376 87.6934C88.8216 90.2147 87.187 93.1814 85.251 95.5374C83.515 97.652 81.7709 99.7627 79.9883 101.84L108.647 115.055L119.052 101.468L90.8376 87.6934Z" fill="#00A7D0"/>
<path d="M90.819 50.1014L89.3457 49.3947L38.0497 79.424L69.5604 94.5107L90.819 50.1014ZM47.683 140.208L58.799 116.989L0.568359 89.1147L9.92036 69.5827L105.81 13.1094L131.976 25.636L93.515 105.977L109.362 113.565L98.6004 136.044L82.7524 128.459L71.639 151.677L47.683 140.208Z" fill="#2E7AA8"/>
<path d="M109.362 113.565L119.052 101.468L111.448 118.328L98.2432 136.773L109.362 113.565Z" fill="#3A6992"/>
<path d="M105.651 94.7774L143.465 11.8867L131.976 25.6361L93.5146 105.977C94.5866 104.944 105.039 95.3894 105.651 94.7774Z" fill="#3A6992"/>
<path d="M9.91992 69.5827L27.0066 54.708L120.703 0.930664L105.809 13.1093L9.91992 69.5827Z" fill="#0096D3"/>
<path d="M105.81 13.1093L131.976 25.636L143.466 11.8867L120.703 0.930664L105.81 13.1093Z" fill="#03BFE1"/>
<path d="M70.6908 84.2132C71.1868 83.3412 71.5268 82.6812 71.8441 82.0252C71.5748 82.6639 71.1974 83.3919 70.6908 84.2132ZM73.6961 73.6546C70.4774 71.3666 68.2614 72.3679 66.7161 72.6079C65.0241 72.8692 63.7708 71.9452 63.7641 71.9412C63.0694 71.4906 62.1388 71.6879 61.6894 72.3839C61.2374 73.0786 61.4361 74.0079 62.1321 74.4586C62.2014 74.5052 63.5121 75.3372 65.8001 75.9386C63.3041 78.2132 60.7588 80.9599 60.6174 81.1132C60.0548 81.7226 60.0921 82.6719 60.7014 83.2346C60.9894 83.5012 61.3561 83.6332 61.7188 83.6332C62.1241 83.6332 62.5268 83.4706 62.8214 83.1506C62.8508 83.1199 64.6241 81.2066 66.6041 79.2986C64.7654 81.5986 63.0401 83.9919 62.7254 84.4319C62.2428 85.1066 62.3974 86.0439 63.0708 86.5266C63.3348 86.7172 63.6401 86.8066 63.9441 86.8066C64.4108 86.8066 64.8708 86.5906 65.1641 86.1812C66.1454 84.8106 67.5321 82.9572 68.8561 81.2946C68.3628 82.2679 67.7388 83.3706 66.4868 85.3852C66.0494 86.0892 66.2641 87.0146 66.9694 87.4519C67.2148 87.6052 67.4894 87.6772 67.7588 87.6772C68.2614 87.6772 68.7508 87.4266 69.0361 86.9692C69.5508 86.1399 69.9668 85.4546 70.3134 84.8639C70.0521 85.5159 70.2774 86.2812 70.8881 86.6799C71.1401 86.8439 71.4241 86.9226 71.7054 86.9226C72.1961 86.9226 72.6774 86.6812 72.9654 86.2399C74.3708 84.0759 75.0534 82.3092 75.3468 80.9186L75.4081 80.9652C76.2428 76.7466 75.2268 74.7412 73.6961 73.6546Z" fill="#C48D68"/>
<path d="M27.7322 90.676C22.9802 90.4066 16.0868 99.708 23.1402 102.239C16.7535 102.088 15.1921 111.115 21.0455 113.607C10.7948 111.612 11.9868 124.896 16.8361 129.703C13.5495 129.177 10.2281 132.317 10.7255 135.737C11.2268 139.18 12.5908 143.953 21.1095 146.511C29.6295 149.068 34.8361 144.279 39.0748 139.763C41.7881 145.307 55.2002 137.815 53.7135 131.183C58.7748 132.976 63.3095 127.232 63.4121 122.643C63.5108 118.164 60.3735 114.745 57.3908 111.836C59.4921 109.912 59.8908 106.343 59.3375 103.616C58.4175 99.0867 52.7468 98.636 52.7468 95.0306C52.7468 93.7693 52.9881 89.8506 51.9135 88.1293C50.2015 85.3893 47.2228 82.6773 43.4748 84.016C27.7322 76.548 27.7322 90.676 27.7322 90.676Z" fill="#404A71"/>
<path d="M36.9128 236.383C32.5835 235.628 31.8835 235.844 27.6062 234.8L17.7021 246.904H56.1222L33.8102 240.901L36.9128 236.383Z" fill="#3A415B"/>
<path d="M108.447 239.852L106.176 236.869C104.127 238.195 101.993 239.328 99.6787 240.133L105.745 246.904H128.256L108.447 239.852Z" fill="#3A415B"/>
<path d="M23.5381 236.421C27.8421 237.476 32.1448 238.573 36.5021 239.312L68.2274 200.281L62.8247 184.773L40.6128 159.161L47.0114 195.459L23.5381 236.421Z" fill="#3A415B"/>
<path d="M66.6856 148.415C57.9803 146.104 46.1803 149.027 37.7109 152.221C37.7109 152.221 42.9056 172.901 46.3149 179.071C56.2469 197.031 99.1989 241.86 99.1989 241.86C101.558 241.057 106.103 237.729 108.184 236.383L66.6856 148.415Z" fill="#404A71"/>
<path d="M36.5605 160.309C44.9659 157.153 61.8259 151.831 70.4779 153.992C70.4779 153.992 59.0205 127.079 53.8192 121.14C50.3085 117.136 31.1445 105.859 31.1445 120.601C31.1445 140.803 36.5605 160.309 36.5605 160.309Z" fill="#BDD9DC"/>
<path d="M44.0307 119.344C43.9187 119.383 43.8067 119.417 43.6907 119.451C41.1307 120.14 38.4947 118.625 37.804 116.065C37.0813 113.388 37.0467 110.044 37.044 109.672C37.032 107.019 39.1747 104.86 41.8267 104.849C44.4773 104.837 46.636 106.976 46.6493 109.625C46.656 110.56 46.7773 112.453 47.076 113.56C47.736 116.008 46.384 118.521 44.0307 119.344Z" fill="#C48D68"/>
<path d="M47.2347 114.596C47.2173 114.252 47.1693 113.907 47.076 113.56C46.7773 112.453 46.656 110.56 46.6493 109.625C46.636 106.976 44.4773 104.837 41.8267 104.849C39.1747 104.86 37.032 107.019 37.044 109.672C37.044 109.732 37.0467 109.877 37.0507 110.079C39.4173 112.751 43.3173 114.008 47.2347 114.596Z" fill="#C08259"/>
<path d="M51.931 100.199C53.4803 104.968 50.8696 110.088 46.1003 111.64C41.331 113.188 36.2083 110.579 34.659 105.809L32.7123 99.8146C31.163 95.0453 33.7736 89.9226 38.5416 88.3733C43.311 86.824 48.4336 89.4333 49.983 94.204L51.931 100.199Z" fill="#C48D68"/>
<path d="M105.41 95.3799C105.219 95.2199 104.999 95.1212 104.772 95.0706C104.991 94.8319 105.226 94.5746 105.499 94.2786C106.06 93.6692 106.022 92.7199 105.412 92.1586C105.336 92.0892 105.256 92.0292 105.172 91.9786C105.591 91.3772 105.522 90.5466 104.971 90.0306C104.543 89.6319 103.95 89.5359 103.435 89.7212C104.119 89.0292 104.544 88.5506 104.595 88.4919C105.143 87.8692 105.084 86.9212 104.462 86.3732C103.84 85.8252 102.891 85.8852 102.344 86.5079C102.308 86.5466 99.0457 90.2239 95.6911 92.1386C94.2351 89.9372 92.2817 89.1652 92.1697 89.1226C91.4004 88.8306 90.5497 89.2172 90.2497 89.9826C89.9497 90.7479 90.3311 91.6146 91.0924 91.9239C91.1591 91.9506 92.3057 92.4372 93.1977 93.8092C93.0751 94.1492 92.9311 94.6319 92.8497 95.1972C70.7631 125.091 41.4777 114.479 40.1511 113.976C37.5284 112.972 34.5831 114.273 33.5657 116.896C32.5457 119.524 33.8511 122.479 36.4777 123.497C36.8351 123.636 44.0044 126.361 54.2297 126.361C56.2857 126.361 58.4671 126.252 60.7391 125.987C71.7631 124.708 88.0697 118.357 101.1 101.565C101.314 101.444 101.616 101.256 102.015 100.965C102.283 100.792 102.554 100.603 102.83 100.373L102.795 100.347C103.566 99.6986 104.516 98.7799 105.595 97.4932C106.128 96.8572 106.044 95.9106 105.41 95.3799Z" fill="#C48D68"/>
<path d="M64.7528 114.055L63.5101 114.323C60.4768 114.976 57.3381 115.309 54.1781 115.309C46.4355 115.309 41.0581 113.357 40.4741 113.136C39.7835 112.869 39.0595 112.737 38.3248 112.737C35.8261 112.737 33.6301 114.24 32.7261 116.571C32.1461 118.065 32.0435 119.765 32.8301 121.161C35.7608 126.361 43.8088 128.464 54.2301 128.464C56.4461 128.464 58.6701 128.336 60.8421 128.085C62.1701 127.932 63.5648 127.703 64.9861 127.404L65.8608 127.175C65.8608 127.175 64.6101 123.385 64.3448 119.536C64.2421 118.071 64.7528 114.055 64.7528 114.055Z" fill="#D2EBED"/>
<path d="M32.5097 104.633C35.6617 102.631 36.751 98.8786 36.4044 95.1266C39.1684 96.9853 41.355 95.8506 43.0817 92.6586C48.3177 99.9973 56.3004 89.0786 45.4164 85.1253C36.7097 81.9626 28.1777 90.572 30.4084 99.2293L32.5097 104.633Z" fill="#404A71"/>
</svg>
