<svg width="667" height="463" viewBox="0 0 667 463" fill="none" xmlns="http://www.w3.org/2000/svg">
<path d="M666.667 402.928H0V402.595H666.667V402.928Z" fill="#EBEBEB"/>
<path d="M555.705 424.056H599.868V424.389H555.705V424.056Z" fill="#EBEBEB"/>
<path d="M430.036 427.673H441.627V428.007H430.036V427.673Z" fill="#EBEBEB"/>
<path d="M528.781 411.673H554.371V412.007H528.781V411.673Z" fill="#EBEBEB"/>
<path d="M69.9453 413.915H127.536V414.248H69.9453V413.915Z" fill="#EBEBEB"/>
<path d="M139.408 413.915H147.852V414.248H139.408V413.915Z" fill="#EBEBEB"/>
<path d="M175.295 419.544H300.196V419.878H175.295V419.544Z" fill="#EBEBEB"/>
<path d="M398.638 78.5708C421.335 78.5708 439.734 96.9708 439.734 119.667C439.734 142.363 421.335 160.761 398.638 160.761C375.942 160.761 357.543 142.363 357.543 119.667C357.543 96.9708 375.942 78.5708 398.638 78.5708ZM303.108 104.489V134.844L318.738 136.319C320.847 146.493 324.88 155.952 330.395 164.357L320.355 176.484L341.819 197.949L353.947 187.908C362.351 193.424 371.812 197.459 381.987 199.568L383.459 215.197H413.816L415.29 199.567C425.464 197.456 434.926 193.424 443.328 187.908L455.455 197.949L476.922 176.484L466.882 164.356C472.396 155.952 476.428 146.493 478.539 136.319L494.171 134.844V104.489L478.539 103.016C476.428 92.8401 472.396 83.3788 466.882 74.9774L476.922 62.8481L455.455 41.3828L443.328 51.4214C434.926 45.9094 425.464 41.8761 415.29 39.7654L413.816 24.1348H383.459L381.987 39.7654C371.812 41.8748 362.351 45.9094 353.947 51.4214L341.819 41.3828L320.355 62.8481L330.395 74.9761C324.88 83.3788 320.847 92.8401 318.738 103.016L303.108 104.489Z" fill="#E1E1E1"/>
<path d="M190.183 191.299C190.183 174.992 203.402 161.773 219.71 161.773C236.016 161.773 249.236 174.992 249.236 191.299C249.236 207.607 236.016 220.827 219.71 220.827C203.402 220.827 190.183 207.607 190.183 191.299ZM251.819 240.332L260.532 247.547L275.955 232.121L268.742 223.409C272.703 217.372 275.602 210.572 277.116 203.263L288.348 202.205V180.395L277.118 179.336C275.602 172.024 272.703 165.227 268.742 159.191L275.955 150.476L260.532 135.052L251.819 142.267C245.782 138.307 238.983 135.408 231.672 133.891L230.615 122.66L208.804 122.663L207.748 133.891C200.435 135.407 193.638 138.307 187.6 142.267L178.887 135.052L163.463 150.476L170.678 159.191C166.715 165.225 163.818 172.024 162.3 179.336L151.072 180.395V202.205L162.3 203.263C163.819 210.572 166.715 217.372 170.678 223.409L163.463 232.121L178.887 247.547L187.6 240.332C193.638 244.292 200.435 247.191 207.748 248.708L208.804 259.939H230.615L231.672 248.707C238.983 247.191 245.782 244.292 251.819 240.332Z" fill="#E1E1E1"/>
<path d="M299.358 319.723C299.358 300.309 315.097 284.569 334.512 284.569C353.926 284.569 369.665 300.309 369.665 319.723C369.665 339.139 353.926 354.876 334.512 354.876C315.097 354.876 299.358 339.139 299.358 319.723ZM348.754 388.072C357.458 386.268 365.55 382.816 372.741 378.1L383.114 386.688L401.477 368.328L392.888 357.949C397.604 350.765 401.054 342.671 402.86 333.965L416.23 332.707V306.739L402.86 305.481C401.054 296.776 397.604 288.683 392.888 281.495L401.477 271.12L383.114 252.76L372.741 261.347C365.55 256.631 357.458 253.179 348.754 251.375L347.496 238.004H321.526L320.268 251.375C311.562 253.179 303.47 256.631 296.282 261.347L285.909 252.76L267.546 271.12L276.134 281.495C271.418 288.683 267.969 296.776 266.162 305.481L252.793 306.739V332.707L266.162 333.965C267.969 342.671 271.418 350.765 276.134 357.952L267.546 368.328L285.909 386.688L296.282 378.1C303.47 382.816 311.562 386.268 320.268 388.072L321.526 401.443H347.496L348.754 388.072Z" fill="#E1E1E1"/>
<path d="M547.626 167.533C547.626 166.397 548.498 165.499 549.714 165.499C550.957 165.499 551.856 166.397 551.856 167.533C551.856 168.671 550.957 169.596 549.714 169.596C548.498 169.596 547.626 168.671 547.626 167.533ZM551.67 150.908L551.036 163.279H548.42L547.758 150.908H551.67ZM535.402 174.364H564.078C566.849 174.364 568.581 171.364 567.196 168.965L552.858 144.132C551.472 141.732 548.009 141.732 546.624 144.132L532.286 168.965C530.901 171.364 532.633 174.364 535.402 174.364Z" fill="#F0F0EF"/>
<path d="M128.155 55.5375C128.155 54.4015 129.027 53.5028 130.242 53.5028C131.484 53.5028 132.384 54.4015 132.384 55.5375C132.384 56.6735 131.484 57.6002 130.242 57.6002C129.027 57.6002 128.155 56.6735 128.155 55.5375ZM132.198 38.9108L131.564 51.2829H128.947L128.287 38.9108H132.198ZM115.931 62.3682H144.607C147.378 62.3682 149.108 59.3682 147.723 56.9695L133.386 32.1362C132 29.7362 128.538 29.7362 127.152 32.1362L112.815 56.9695C111.43 59.3682 113.16 62.3682 115.931 62.3682Z" fill="#F0F0EF"/>
<path d="M205.085 361.082C205.085 359.946 205.957 359.046 207.173 359.046C208.417 359.046 209.314 359.946 209.314 361.082C209.314 362.219 208.417 363.143 207.173 363.143C205.957 363.143 205.085 362.219 205.085 361.082ZM209.129 344.455L208.496 356.827H205.879L205.219 344.455H209.129ZM192.863 367.911H221.539C224.308 367.911 226.04 364.912 224.656 362.512L210.317 337.679C208.932 335.28 205.469 335.28 204.084 337.679L189.747 362.512C188.361 364.912 190.092 367.911 192.863 367.911Z" fill="#F0F0EF"/>
<path d="M473.568 325.148C473.568 324.012 474.44 323.114 475.654 323.114C476.898 323.114 477.797 324.012 477.797 325.148C477.797 326.284 476.898 327.211 475.654 327.211C474.44 327.211 473.568 326.284 473.568 325.148ZM477.61 308.522L476.977 320.894H474.361L473.7 308.522H477.61ZM461.344 331.979H490.02C492.79 331.979 494.522 328.98 493.137 326.58L478.8 301.746C477.413 299.347 473.95 299.347 472.565 301.746L458.228 326.58C456.842 328.98 458.574 331.979 461.344 331.979Z" fill="#F0F0EF"/>
<path d="M488.733 14.0055C488.733 13.3775 489.216 12.8788 489.889 12.8788C490.577 12.8788 491.076 13.3775 491.076 14.0055C491.076 14.6361 490.577 15.1481 489.889 15.1481C489.216 15.1481 488.733 14.6361 488.733 14.0055ZM490.972 4.79878L490.621 11.6494H489.172L488.807 4.79878H490.972ZM481.965 17.7881H497.844C499.379 17.7881 500.337 16.1281 499.571 14.7988L491.631 1.04678C490.863 -0.281219 488.945 -0.281219 488.179 1.04678L480.239 14.7988C479.472 16.1281 480.431 17.7881 481.965 17.7881Z" fill="#F0F0EF"/>
<path d="M92.6958 224.284C92.6958 223.655 93.1785 223.158 93.8518 223.158C94.5398 223.158 95.0372 223.655 95.0372 224.284C95.0372 224.914 94.5398 225.427 93.8518 225.427C93.1785 225.427 92.6958 224.914 92.6958 224.284ZM94.9345 215.078L94.5838 221.928H93.1345L92.7692 215.078H94.9345ZM85.9265 228.066H101.807C103.34 228.066 104.3 226.406 103.532 225.078L95.5918 211.326C94.8252 209.998 92.9078 209.998 92.1412 211.326L84.2012 225.078C83.4332 226.406 84.3918 228.066 85.9265 228.066Z" fill="#F0F0EF"/>
<path d="M396.74 122.663C396.74 122.032 397.223 121.535 397.896 121.535C398.584 121.535 399.083 122.032 399.083 122.663C399.083 123.292 398.584 123.804 397.896 123.804C397.223 123.804 396.74 123.292 396.74 122.663ZM398.98 113.455L398.628 120.307H397.18L396.814 113.455H398.98ZM389.972 126.444H405.851C407.386 126.444 408.344 124.783 407.578 123.455L399.638 109.703C398.871 108.373 396.952 108.373 396.186 109.703L388.247 123.455C387.479 124.783 388.438 126.444 389.972 126.444Z" fill="#F0F0EF"/>
<path d="M260.07 37.7654H218.82V10.5027H260.07V37.7654Z" fill="#E1E1E1"/>
<path d="M260.159 14.9774H218.82V10.5027H260.159V14.9774Z" fill="#F0F0EF"/>
<path d="M169.918 138.875H128.669V111.611H169.918V138.875Z" fill="#E1E1E1"/>
<path d="M170.008 116.085H128.669V111.612H170.008V116.085Z" fill="#F0F0EF"/>
<path d="M164.211 332.948H122.96V305.684H164.211V332.948Z" fill="#E1E1E1"/>
<path d="M164.299 310.16H122.96V305.684H164.299V310.16Z" fill="#F0F0EF"/>
<path d="M481.839 262.683H440.588V235.42H481.839V262.683Z" fill="#E1E1E1"/>
<path d="M481.927 239.893H440.588V235.42H481.927V239.893Z" fill="#F0F0EF"/>
<path d="M572.25 298.059H531.001V270.795H572.25V298.059Z" fill="#E1E1E1"/>
<path d="M572.34 275.269H531.001V270.795H572.34V275.269Z" fill="#F0F0EF"/>
<path d="M557.078 94.3456H515.829V67.0815H557.078V94.3456Z" fill="#E1E1E1"/>
<path d="M557.166 71.5562H515.829V67.0815H557.166V71.5562Z" fill="#F0F0EF"/>
<path d="M591.852 447.715C591.852 456.054 476.11 462.812 333.333 462.812C190.557 462.812 74.8145 456.054 74.8145 447.715C74.8145 439.376 190.557 432.616 333.333 432.616C476.11 432.616 591.852 439.376 591.852 447.715Z" fill="#F4F5F5"/>
<path d="M284.647 51.9548H246.343C239.828 51.9548 234.548 57.2362 234.548 63.7508V97.0868C234.548 103.6 239.828 108.88 246.341 108.88H253.523L250.819 119.407L261.456 108.88H284.647C291.161 108.88 296.441 103.6 296.441 97.0868V63.7508C296.441 57.2362 291.161 51.9548 284.647 51.9548Z" fill="#4C7ABC"/>
<path d="M250.819 119.407L253.523 108.88H246.341C239.828 108.88 234.548 103.6 234.548 97.0868V63.7508C234.548 57.2362 239.828 51.9548 246.343 51.9548H284.647C291.161 51.9548 296.441 57.2362 296.441 63.7508V97.0868C296.441 103.6 291.161 108.88 284.647 108.88H261.456L250.819 119.407Z" fill="#C3D7EF"/>
<path d="M283.89 80.7135H282.557C282.556 85.4295 280.649 89.6868 277.56 92.7788C274.468 95.8695 270.21 97.7761 265.494 97.7775C260.778 97.7761 256.521 95.8695 253.428 92.7788C250.338 89.6868 248.432 85.4295 248.43 80.7135C248.432 75.9975 250.338 71.7401 253.428 68.6481C256.521 65.5588 260.777 63.6508 265.494 63.6508C270.21 63.6508 274.468 65.5588 277.56 68.6481C280.649 71.7401 282.556 75.9975 282.557 80.7135H283.89H285.224C285.222 69.8161 276.39 60.9841 265.494 60.9841C254.597 60.9841 245.765 69.8161 245.764 80.7135C245.765 91.6108 254.597 100.443 265.494 100.444C276.39 100.443 285.222 91.6108 285.224 80.7135H283.89Z" fill="#4C7ABC"/>
<path d="M255.682 81.6174L261.488 87.9187C261.739 88.1921 262.09 88.3467 262.46 88.348C262.832 88.3507 263.183 88.2 263.438 87.9307L275.296 75.364C275.802 74.828 275.778 73.984 275.242 73.4787C274.707 72.9734 273.863 72.9974 273.358 73.5334L262.48 85.06L257.642 79.8107C257.143 79.268 256.3 79.2347 255.758 79.7334C255.216 80.2321 255.182 81.076 255.682 81.6174Z" fill="#4C7ABC"/>
<path d="M217.738 441.099L227.016 440.943L229.318 419.504L220.04 419.661L217.738 441.099Z" fill="#F48E81"/>
<path d="M218.85 430.718L219.01 429.22H219.014L218.854 430.718H218.85Z" fill="#CECECE"/>
<path d="M218.854 430.717L219.014 429.22L228.432 427.757L228.131 430.56L218.854 430.717Z" fill="#CD7469"/>
<path d="M239.49 342.129C239.515 371.503 231.246 427.321 231.246 427.321L215.722 429.731C215.722 429.731 214.212 377.655 213.628 348.827C213.54 344.577 201.707 324.081 189.519 304.056C183.24 293.731 176.862 283.521 171.94 275.721C166.664 267.363 163.062 261.771 163.062 261.771L199.906 247.984C199.906 247.984 239.464 313.885 239.49 342.129Z" fill="#4C7ABC"/>
<path d="M233.411 428.226L214.723 429.413L214.395 423.399L234.919 421.781L233.411 428.226Z" fill="#323F44"/>
<path d="M228.383 439.548C230.416 439.952 231.946 439.913 232.538 439.429C232.746 439.259 232.842 439.032 232.832 438.735L232.703 438.497L232.624 438.459C231.935 438.196 229.883 438.897 228.383 439.548ZM227.47 439.647L227.596 439.425C228.027 439.223 231.828 437.449 232.932 438.121C233.144 438.249 233.262 438.455 233.272 438.716C233.286 439.153 233.134 439.505 232.816 439.767C231.762 440.629 229.119 440.18 227.638 439.836L227.608 439.827L227.47 439.647Z" fill="#4C7ABC"/>
<path d="M230.228 436.183C229.897 436.139 229.601 436.22 229.323 436.432C228.521 437.04 228.129 438.516 227.98 439.239C229.151 438.592 230.723 437.072 230.647 436.444C230.643 436.404 230.631 436.304 230.451 436.235L230.228 436.183ZM227.553 439.796L227.471 439.595C227.485 439.489 227.837 437.011 229.057 436.085C229.429 435.803 229.844 435.689 230.291 435.749C230.892 435.832 231.053 436.14 231.084 436.388C231.211 437.436 228.911 439.36 227.771 439.825L227.608 439.827L227.553 439.796Z" fill="#4C7ABC"/>
<path d="M226.748 438.521L216.618 438.195C216.24 438.183 215.9 438.435 215.804 438.8L213.632 446.947C213.406 447.791 214.022 448.617 214.898 448.632C218.554 448.688 223.842 448.645 228.436 448.793C233.805 448.967 237.221 448.721 243.518 448.924C247.326 449.047 248.541 445.249 246.961 444.851C239.772 443.037 235.062 443.364 228.952 439.313C228.288 438.873 227.548 438.548 226.748 438.521Z" fill="#323F44"/>
<path d="M189.519 304.056C185.314 297.142 181.063 290.278 177.236 284.155C177.604 276.188 177.743 270.747 177.743 270.747L179.095 269.668C180.987 273.148 189.484 289.583 189.519 304.056Z" fill="#3D6BB2"/>
<path d="M113.07 439.981L122.025 442.416L130.206 422.468L121.253 420.033L113.07 439.981Z" fill="#F48E81"/>
<path d="M117.033 430.321L117.029 430.32L120.413 422.065L120.419 422.067L117.033 430.321Z" fill="#CECECE"/>
<path d="M125.987 432.756L117.033 430.322L120.419 422.067L129.26 424.772L125.987 432.756Z" fill="#CD7469"/>
<path d="M200.842 240.017L200.09 252.911L177.743 270.747C177.743 270.747 176.211 330.745 169.856 343.888C163.5 357.031 132.914 425.891 132.914 425.891L116.188 420.773C116.188 420.773 142.762 339.835 145.438 335.053C148.114 330.271 134.04 260.473 152.894 227.476L200.842 240.017Z" fill="#4C7ABC"/>
<path d="M228.401 182.492C229.346 188.5 230.138 194.5 230.833 200.536C231.504 206.58 232.117 212.608 232.528 218.778L232.774 222.778C232.869 223.698 233.108 224.664 233.48 225.656C234.229 227.632 235.53 229.715 237.197 231.684C238.845 233.674 240.838 235.56 242.977 237.355C244.058 238.236 245.153 239.138 246.3 239.978C247.425 240.802 248.676 241.648 249.738 242.367L247.01 248.762C245.308 248.258 243.872 247.714 242.352 247.076C240.86 246.443 239.368 245.778 237.928 244.992C235.03 243.45 232.221 241.615 229.586 239.335C226.969 237.055 224.478 234.311 222.628 230.82C221.704 229.087 220.916 227.179 220.476 225.122C220.341 224.618 220.28 224.088 220.186 223.57L219.997 222.291L219.689 220.118L216.989 202.36C216.1 196.412 215.253 190.434 214.505 184.471L228.401 182.492Z" fill="#F48F82"/>
<path d="M209.006 166.037C203.811 173.236 212.718 200.761 212.718 200.761L233.286 195.751C233.286 195.751 232.299 182.925 228.612 172.141C224.827 161.068 214.706 158.139 209.006 166.037Z" fill="#4C7ABC"/>
<path d="M216.406 199.863C216.406 199.86 216.406 199.864 216.406 199.861L220.332 198.905C221.122 195.301 220.676 190.644 219.401 186.777C221.114 177.496 221.457 170.668 221.457 166.701C221.457 164.179 221.318 162.813 221.308 162.709C224.328 164.292 227.025 167.501 228.612 172.141C232.298 182.925 233.285 195.751 233.285 195.751L230.349 196.467L216.61 199.813L216.406 199.863Z" fill="#C3D7EF"/>
<path d="M216.406 199.861C217.702 195.081 218.676 190.708 219.401 186.777C220.676 190.644 221.122 195.301 220.332 198.905L216.406 199.861Z" fill="#9DB0CF"/>
<path d="M171.206 149.124C170.544 159.699 168.846 170.121 166.758 179.765C165.226 186.82 163.471 193.455 161.736 199.423C157.676 213.412 153.72 223.787 152.894 227.476C159.92 229.316 186.4 236.245 200.842 240.017C224.551 192.433 221.307 162.703 221.307 162.703C221.307 162.703 216.484 159.924 210.583 157.543C209.807 157.224 209.01 156.924 208.196 156.631C202.934 154.731 194.014 152.608 187.811 151.297C186.507 151.023 185.176 150.779 183.876 150.56C177.252 149.463 171.206 149.124 171.206 149.124Z" fill="#4C7ABC"/>
<path d="M200.842 240.018C186.4 236.246 159.92 229.316 152.894 227.476C153.632 224.18 156.868 215.547 160.446 203.767C165.432 202.623 170.291 201.23 175.142 199.6L173.759 192.787C170.314 192.992 166.852 193.226 163.415 193.442C164.176 190.624 164.926 187.694 165.643 184.668C166.162 184.007 166.918 183.026 167.827 181.795L205.631 229.852C204.171 233.14 202.578 236.532 200.842 240.018ZM215.914 201.644L182.935 159.722C182.292 158.903 181.57 158.186 180.786 157.57C181.676 155.242 182.199 152.794 182.343 150.319C182.85 150.395 183.362 150.475 183.876 150.56C185.176 150.779 186.507 151.023 187.811 151.298C188.246 151.39 188.695 151.486 189.155 151.586C189.787 154.299 190.971 157.132 193.059 159.766H205.059C204.186 158.212 203.962 156.735 204.184 155.334C205.658 155.77 207.018 156.206 208.196 156.631C209.01 156.924 209.807 157.224 210.583 157.543C216.484 159.924 221.307 162.703 221.307 162.703C221.307 162.703 221.458 164.075 221.458 166.702C221.458 172.555 220.714 184.639 215.914 201.644Z" fill="#C3D7EF"/>
<path d="M205.059 159.765C202.588 155.376 205.319 151.588 208.619 148.424L203.476 132.312C201.003 138.739 195.528 149.931 189.083 151.268C189.695 154.077 190.89 157.029 193.059 159.765H205.059Z" fill="#F48E81"/>
<path d="M206.075 151.236C204.58 149.989 203.33 147.453 203.064 145.097C204.19 147.052 205.764 148.505 207.574 149.459C207.032 150.031 206.524 150.624 206.075 151.236Z" fill="#CD7469"/>
<path d="M236.666 133.114C236.416 134.344 225.5 131.732 223.802 129.36C222.106 126.987 227.625 125.68 231.064 127.458C234.502 129.236 236.666 133.114 236.666 133.114Z" fill="#4C7ABC"/>
<path d="M235.645 133.428C234.699 133.428 233.196 133.187 231.568 132.789C231.076 132.671 230.572 132.536 230.069 132.391C230.527 131.587 230.889 130.657 231.144 129.727C235.133 131.284 236.277 132.527 236.573 132.953C236.635 133.057 236.667 133.113 236.667 133.113C236.623 133.331 236.245 133.428 235.645 133.428Z" fill="#3061AB"/>
<path d="M231.57 126.932C231.531 130.668 228.676 137.44 224.68 133.633C220.684 129.825 231.636 120.509 231.57 126.932Z" fill="#323F44"/>
<path d="M225.627 142.689C224.929 143.868 224.193 144.947 223.432 145.897C217.928 152.823 206.945 152.48 202.848 144.705C202.569 144.199 202.328 143.665 202.125 143.095C199.893 136.917 202.303 132.085 205.664 123.551C209.024 115.015 220.148 112.452 226.68 119.377C232.375 125.403 229.8 135.688 225.627 142.689Z" fill="#F48E81"/>
<path d="M211.872 108.763C211.872 108.763 209.479 109.312 206.814 111.765C201.856 116.325 198.247 123.161 204.524 130.049C209.072 128.339 211.312 122.055 211.872 120.252V108.763Z" fill="#323F44"/>
<path d="M199.228 128.976C198.894 131.421 199.732 133.787 200.997 135.373C202.901 137.759 205.66 136.489 206.645 133.764C207.53 131.311 207.609 127.115 204.969 125.712C202.37 124.331 199.609 126.177 199.228 128.976Z" fill="#F48E81"/>
<path d="M217.252 131.631C216.937 132.307 217.042 133.019 217.486 133.221C217.932 133.423 218.548 133.039 218.862 132.363C219.178 131.685 219.074 130.973 218.629 130.772C218.184 130.569 217.568 130.953 217.252 131.631Z" fill="#323F44"/>
<path d="M224.944 135.125C224.63 135.801 224.734 136.513 225.179 136.716C225.623 136.919 226.24 136.533 226.555 135.857C226.871 135.18 226.766 134.468 226.32 134.267C225.876 134.064 225.26 134.448 224.944 135.125Z" fill="#323F44"/>
<path d="M222.341 134.351C222.341 134.351 222.176 138.828 223.044 141.432C221.364 141.95 219.556 140.507 219.556 140.507L222.341 134.351Z" fill="#F0615D"/>
<path d="M214.704 141.438C214.965 141.602 215.25 141.756 215.562 141.898L215.854 141.791L215.748 141.502C212.76 140.14 212.333 137.438 212.329 137.41L212.08 137.226C211.96 137.244 211.876 137.355 211.893 137.475C211.909 137.583 212.277 139.915 214.704 141.438Z" fill="#323F44"/>
<path d="M216.032 128.084C216.162 128.165 216.332 128.176 216.476 128.099C218.21 127.175 219.641 127.928 219.656 127.936C219.868 128.051 220.137 127.973 220.253 127.761C220.37 127.549 220.292 127.284 220.08 127.168C220.005 127.128 218.214 126.184 216.062 127.331C215.848 127.444 215.766 127.709 215.881 127.921L216.032 128.084Z" fill="#323F44"/>
<path d="M229.484 134.001L229.729 134.068C229.972 134.063 230.165 133.863 230.162 133.621C230.117 131.201 228.404 130.139 228.333 130.081C228.126 129.953 227.854 130.017 227.725 130.223C227.597 130.427 227.658 130.695 227.862 130.821C227.936 130.863 229.245 131.7 229.28 133.643C229.284 133.793 229.364 133.925 229.484 134.001Z" fill="#323F44"/>
<path d="M231.233 129.36C225.093 124.603 217.269 122.435 211.143 121.444C205.423 120.519 201.187 120.634 201.187 120.634C201.453 117.196 205.855 109.334 208.619 108.762C212.297 108.002 221.048 108.662 222.532 109.219C225.753 110.423 232.171 115.079 232.653 117.032C233.655 121.128 231.233 129.36 231.233 129.36Z" fill="#4C7ABC"/>
<path d="M211.139 121.443C211.139 121.443 219.273 119.626 226.381 122.386C233.489 125.146 236.667 133.113 236.667 133.113C236.667 133.113 236.035 131.477 230.163 129.359C223.647 127.007 218.119 126.972 211.139 121.443Z" fill="#4C7ABC"/>
<path d="M211.14 121.444C206.557 120.703 202.927 120.629 201.667 120.629C201.524 120.629 201.413 120.629 201.333 120.631C201.237 120.632 201.187 120.633 201.187 120.633C201.453 117.196 205.855 109.333 208.619 108.761C209.811 108.516 211.536 108.419 213.372 108.419C217.205 108.419 221.529 108.841 222.532 109.219C222.532 109.219 215.265 112.352 214.757 112.859C214.256 113.347 211.212 121.263 211.144 121.441C211.14 121.443 211.139 121.443 211.139 121.443L211.14 121.444Z" fill="#4573B7"/>
<path d="M236.666 133.114C236.649 133.072 235.96 131.451 230.162 129.359C223.725 127.036 218.253 126.974 211.39 121.642C211.306 121.576 211.224 121.511 211.14 121.444H211.142C211.142 121.444 211.142 121.444 211.144 121.442C211.28 121.412 213.862 120.856 217.34 120.856C220.053 120.856 223.313 121.195 226.381 122.386C233.448 125.13 236.63 133.023 236.666 133.114Z" fill="#4573B7"/>
<path d="M211.143 121.444H211.14L211.139 121.443C211.139 121.443 211.14 121.443 211.144 121.441C211.143 121.444 211.143 121.444 211.143 121.444Z" fill="#3E6CB2"/>
<path d="M213.232 150.829C211.259 150.829 209.308 150.373 207.574 149.459C205.764 148.505 204.19 147.052 203.064 145.097C202.991 144.969 202.919 144.839 202.848 144.705C202.663 142.471 202.946 139.543 203.65 136.608C204.903 136.439 206.074 135.347 206.646 133.764C207.167 132.321 207.408 130.273 206.982 128.547C207.563 128.04 208.09 127.463 208.563 126.852C208.266 128.029 206.912 133.563 207.376 134.763C207.539 135.179 208.02 135.297 208.658 135.297C209.078 135.297 209.567 135.247 210.076 135.195C210.587 135.143 211.12 135.092 211.627 135.092C212.302 135.092 212.934 135.183 213.414 135.485C215.176 136.601 215.835 138.884 215.835 138.884L214.758 139.569C214.758 139.569 212.639 136.183 211.866 136.093C211.858 136.093 211.848 136.092 211.839 136.092C210.998 136.092 207.404 139.379 207.731 140.533C208.074 141.7 207.503 142.283 208.619 142.791C208.76 142.855 208.927 142.883 209.11 142.883C210.37 142.883 212.411 141.548 212.411 141.548L213.883 142.88C213.883 142.88 211.536 145.377 211.891 145.885C212.158 146.256 213.544 146.869 214.927 146.869C215.388 146.869 215.848 146.801 216.267 146.633C217.942 145.961 217.878 142.296 218.195 141.916C218.524 141.535 215.62 140.28 215.62 140.28L216.508 138.884C216.508 138.884 220.174 141.219 220.312 141.916C220.44 142.625 219.718 144.719 220.338 144.719C220.795 144.719 223.648 144.047 225.627 142.689C224.93 143.868 224.194 144.947 223.432 145.897C220.824 149.18 216.984 150.829 213.232 150.829Z" fill="#B4685E"/>
<path d="M206.981 128.547C206.976 128.529 206.972 128.511 206.967 128.493C207.043 128.379 207.12 128.265 207.197 128.155L208.619 126.632C208.619 126.632 208.599 126.711 208.563 126.852C208.089 127.463 207.563 128.04 206.981 128.547Z" fill="#2E3436"/>
<path d="M203.649 136.608C204.352 133.683 205.473 130.749 206.967 128.493C206.972 128.511 206.976 128.529 206.981 128.547C207.408 130.273 207.167 132.321 206.645 133.764C206.073 135.347 204.903 136.439 203.649 136.608Z" fill="#B4685E"/>
<path d="M228.872 120.97L228.669 120.19L229.243 119.624L230.517 119.975C230.401 119.45 230.007 119.006 229.452 118.854C228.926 118.708 228.39 118.866 228.022 119.218L227.845 119.144L224.32 118.146L224.132 118.118C223.996 117.627 223.615 117.219 223.088 117.074C222.533 116.922 221.967 117.102 221.6 117.494L222.875 117.843L223.079 118.623L222.505 119.19L221.229 118.838C221.345 119.363 221.74 119.807 222.295 119.959C222.821 120.104 223.359 119.947 223.727 119.596L223.901 119.668L227.427 120.668L227.615 120.695C227.751 121.186 228.133 121.595 228.66 121.739C229.213 121.891 229.78 121.711 230.148 121.32L228.872 120.97Z" fill="#FEFEFE"/>
<path d="M248.079 241.589L257.072 244.452L249.904 252.083C249.904 252.083 242.034 249.043 243.771 245.055L248.079 241.589Z" fill="#F48E81"/>
<path d="M261.616 254.371L258.919 259.233L249.904 252.083L257.072 244.452L261.616 254.371Z" fill="#F48E81"/>
<path d="M170.61 168.335C166.494 173.051 162.29 177.929 158.303 182.779C156.287 185.195 154.358 187.66 152.502 190.095C150.678 192.507 148.915 195.065 147.728 197.224C147.444 197.747 147.215 198.243 147.094 198.536C147.043 198.659 147.004 198.772 147.012 198.653L147.011 198.533L146.983 197.928C146.92 197.319 146.762 196.695 146.479 196.104C146.324 195.803 146.219 195.599 146.052 195.359C145.898 195.131 145.695 194.903 145.583 194.775C145.447 194.625 145.299 194.484 145.143 194.357C144.988 194.232 144.924 194.179 144.804 194.095C144.547 193.927 144.414 193.855 144.283 193.791C144.11 193.715 144.07 193.697 143.986 193.669L143.842 193.632C143.739 193.619 143.843 193.677 144.038 193.717C144.406 193.816 145.032 193.903 145.674 193.957C146.984 194.068 148.478 194.088 149.987 194.063C151.503 194.056 153.056 194.011 154.622 193.937C160.887 193.647 167.351 193.168 173.759 192.787L175.142 199.6C168.835 201.719 162.519 203.437 155.922 204.728C152.594 205.359 149.308 205.921 145.491 206.069C144.514 206.096 143.519 206.113 142.282 205.981C141.674 205.913 140.982 205.808 140.104 205.559C139.88 205.493 139.672 205.433 139.388 205.323C139.118 205.217 138.886 205.131 138.536 204.952C138.226 204.796 137.912 204.631 137.496 204.336C137.295 204.192 137.14 204.088 136.915 203.892C136.686 203.695 136.466 203.483 136.258 203.263C136.067 203.068 135.815 202.751 135.603 202.44C135.386 202.113 135.203 201.836 135.022 201.435C134.659 200.656 134.436 199.841 134.367 199.027C134.347 198.821 134.335 198.616 134.331 198.412L134.332 198.208L134.344 197.815C134.352 197.539 134.372 197.304 134.399 197.091C134.498 196.167 134.666 195.493 134.84 194.839C135.196 193.583 135.599 192.583 136.011 191.643C137.659 187.968 139.54 185.135 141.434 182.248C143.332 179.4 145.346 176.72 147.364 174.068C151.463 168.789 155.679 163.808 160.23 158.889L170.61 168.335Z" fill="#F48F82"/>
<path d="M168.369 149.236C159.601 150.627 145.844 173.251 145.844 173.251L164.882 185.624C164.882 185.624 172.5 176.311 177.776 166.119C183.524 155.018 178.992 147.552 168.369 149.236Z" fill="#4C7ABC"/>
<path d="M164.882 185.624L159.07 181.847L147.277 174.183L145.844 173.251C145.844 173.251 146.462 172.235 147.52 170.619C150.862 172.263 154.53 173.103 158.217 173.103C159.242 173.103 160.27 173.037 161.292 172.907C161.705 173.812 162.233 174.683 162.876 175.5L167.826 181.795C166.917 183.025 166.161 184.007 165.642 184.668C165.158 185.285 164.882 185.624 164.882 185.624ZM160.416 154.268C161.284 153.429 162.153 152.661 163.01 151.988L162.2 154.011L160.416 154.268Z" fill="#C3D7EF"/>
<path d="M187.81 151.298L192.513 147.891L201.26 159.599L204.624 153.746L208.196 156.631C208.196 156.631 211.334 161.143 208.196 167.311L201.186 161.576L193.645 166.406C193.645 166.406 185.617 157.046 187.81 151.298Z" fill="#4C7ABC"/>
<path d="M177.203 133.963C185.467 144.468 183.652 159.663 173.147 167.925C162.651 176.183 147.455 174.368 139.192 163.864C133.45 156.563 132.579 146.996 136.112 139.069L149.324 155.864L162.2 154.011L167.043 141.927L153.831 125.131C162.367 123.563 171.462 126.663 177.203 133.963Z" fill="#4C7ABC"/>
<path d="M270.603 330.917C262.339 320.413 264.154 305.219 274.659 296.953C285.155 288.697 300.35 290.512 308.614 301.017C314.356 308.317 315.227 317.885 311.694 325.812L298.482 309.015L285.606 310.869L280.762 322.953L293.974 339.749C285.439 341.317 276.344 338.219 270.603 330.917Z" fill="#4C7ABC"/>
<path d="M158.217 173.103C151.056 173.103 143.967 169.933 139.192 163.864C135.704 159.429 134.013 154.159 134.015 148.927C134.016 145.545 134.725 142.181 136.112 139.069L149.324 155.864L162.2 154.011L167.043 141.927L153.831 125.131C155.276 124.865 156.739 124.733 158.196 124.733C165.351 124.733 172.433 127.899 177.203 133.963C180.689 138.395 182.381 143.661 182.384 148.889C182.387 151.848 181.847 154.793 180.785 157.569C178.504 155.775 175.711 154.849 172.897 154.849C170.136 154.849 167.355 155.741 165.016 157.581C161.813 160.1 160.143 163.844 160.144 167.625C160.145 169.42 160.523 171.223 161.292 172.907C160.271 173.037 159.243 173.103 158.217 173.103Z" fill="#6791CA"/>
<path d="M265.495 317.867C265.445 317.243 265.421 316.616 265.42 315.991C265.42 315.355 265.444 314.72 265.495 314.085V317.867Z" fill="#6791CA"/>
<path d="M282.789 307.299C277.25 311.657 269.226 310.699 264.869 305.16L162.876 175.5C158.518 169.961 159.476 161.939 165.016 157.581C170.554 153.223 178.578 154.181 182.934 159.721L284.929 289.38C289.286 294.919 288.328 302.943 282.789 307.299Z" fill="#4C7ABC"/>
<path d="M265.494 305.895C265.278 305.66 265.07 305.415 264.869 305.16L162.876 175.5C162.233 174.683 161.705 173.812 161.292 172.907C160.522 171.223 160.145 169.42 160.144 167.625C160.142 163.844 161.813 160.1 165.016 157.581C167.354 155.741 170.136 154.849 172.897 154.849C176.676 154.849 180.417 156.52 182.934 159.721L265.494 264.673V274.712L180.194 166.276C178.901 164.632 176.98 163.773 175.038 163.773C173.62 163.773 172.192 164.232 170.99 165.176C168.145 167.415 167.653 171.536 169.89 174.381L265.494 295.916V305.895Z" fill="#6791CA"/>
<path d="M265.495 295.916L169.891 174.381C167.654 171.536 168.146 167.415 170.991 165.176C172.192 164.232 173.62 163.773 175.039 163.773C176.98 163.773 178.902 164.632 180.195 166.276L265.495 274.712V295.916Z" fill="#517BBC"/>
<path d="M171.748 194.478L178.727 188.198L182.184 199.564C182.184 199.564 175.065 203.576 172.535 200.002L171.748 194.478Z" fill="#F48E81"/>
<path d="M186.404 187.659L188.827 197.188L182.184 199.564L178.727 188.197L186.404 187.659Z" fill="#F48E81"/>
<path d="M131.541 430.663L113.892 424.407L115.956 418.748L135.462 425.331L131.541 430.663Z" fill="#323F44"/>
<path d="M124.316 439.548C126.351 439.952 127.88 439.913 128.472 439.429C128.68 439.259 128.776 439.032 128.766 438.735L128.638 438.497L128.559 438.459C127.868 438.196 125.816 438.897 124.316 439.548ZM123.404 439.647L123.53 439.425C123.96 439.223 127.762 437.449 128.867 438.121C129.079 438.249 129.196 438.455 129.206 438.716C129.22 439.153 129.067 439.505 128.75 439.767C127.696 440.629 125.052 440.18 123.571 439.836L123.542 439.827L123.404 439.647Z" fill="#4C7ABC"/>
<path d="M126.163 436.183C125.832 436.139 125.535 436.22 125.256 436.432C124.455 437.04 124.063 438.516 123.915 439.239C125.086 438.592 126.656 437.072 126.582 436.444C126.576 436.404 126.564 436.304 126.386 436.235L126.163 436.183ZM123.487 439.796L123.404 439.595C123.419 439.489 123.771 437.011 124.991 436.085C125.364 435.803 125.779 435.689 126.226 435.749C126.826 435.832 126.988 436.14 127.018 436.388C127.144 437.436 124.844 439.36 123.704 439.825L123.542 439.827L123.487 439.796Z" fill="#4C7ABC"/>
<path d="M122.681 438.521L112.553 438.195C112.173 438.183 111.834 438.435 111.737 438.8L109.565 446.947C109.341 447.791 109.956 448.617 110.832 448.632C114.489 448.688 119.777 448.645 124.369 448.793C129.738 448.967 133.154 448.721 139.452 448.924C143.26 449.047 144.474 445.249 142.894 444.851C135.705 443.037 130.997 443.364 124.886 439.313C124.222 438.873 123.481 438.548 122.681 438.521Z" fill="#323F44"/>
<path d="M151.292 228.135L164.431 231.672L163.252 236.493L149.339 233.144L151.292 228.135Z" fill="#323F44"/>
<path d="M165.916 232.065L196.925 240.424L196.201 244.445L164.584 236.823L165.916 232.065Z" fill="#323F44"/>
<path d="M201.276 241.592L200.844 245.56L197.243 244.699L198.055 240.728L201.276 241.592Z" fill="#323F44"/>
<path d="M178.588 235.792L177.757 239.691C177.685 240.027 177.895 240.359 178.229 240.438L185.527 242.155C185.872 242.236 186.217 242.016 186.289 241.668L187.055 238C187.121 237.671 186.923 237.348 186.6 237.262L179.369 235.315C179.02 235.22 178.664 235.439 178.588 235.792Z" fill="#FEFEFE"/>
<path d="M214.138 187.187L213.934 186.407L214.507 185.841L215.782 186.192C215.667 185.668 215.272 185.223 214.718 185.071C214.191 184.925 213.654 185.083 213.286 185.435L213.111 185.363L209.584 184.363L209.396 184.335C209.26 183.844 208.879 183.436 208.352 183.291C207.799 183.139 207.231 183.319 206.864 183.711L208.139 184.06L208.343 184.84L207.77 185.407L206.495 185.056C206.611 185.58 207.006 186.024 207.559 186.176C208.086 186.321 208.623 186.165 208.991 185.813L209.167 185.885L212.692 186.885L212.88 186.912C213.016 187.403 213.398 187.812 213.924 187.956C214.479 188.109 215.046 187.928 215.412 187.537L214.138 187.187Z" fill="#4C7ABC"/>
<path d="M359.614 444.008V448.03C359.614 448.531 360.022 448.927 360.524 448.927H474.046C478.245 448.927 481.106 444.687 479.54 440.803L443.564 351.706L385.429 352.102L387.414 363.663L400.237 438.484C400.654 440.896 398.796 443.111 396.342 443.111H360.524C360.022 443.111 359.614 443.507 359.614 444.008Z" fill="#4C7ABC"/>
<path d="M471.837 448.927H360.524C360.022 448.927 359.614 448.531 359.614 448.029V444.008C359.614 443.507 360.022 443.111 360.524 443.111H396.342H470.205C470.837 443.111 471.398 442.891 471.837 442.533V448.927ZM471.837 437.696L464.493 420.031C465.461 419.944 466.397 419.648 467.209 419.092L471.916 421.924L473.258 425.251H471.837V437.696ZM462.79 415.936L461.064 411.783L461.856 411.587C462.029 411.544 462.201 411.523 462.372 411.523C463.36 411.523 464.25 412.215 464.5 413.22C464.544 413.395 464.565 413.569 464.565 413.744C464.565 414.739 463.882 415.663 462.88 415.912L462.79 415.936ZM459.538 408.115L450.621 386.665L457.234 385.571L466.009 407.299C465.2 406.945 464.318 406.751 463.414 406.751C462.908 406.751 462.392 406.812 461.878 406.94C461 407.159 460.214 407.575 459.538 408.115Z" fill="#B1C9E8"/>
<path d="M399.317 433.113L394.142 402.928H394.144L399.317 433.113Z" fill="#FEFEFE"/>
<path d="M394.144 402.928H394.143L394.087 402.595L394.144 402.928Z" fill="#F6F7F7"/>
<path d="M470.205 443.111H396.342C398.561 443.111 400.293 441.3 400.296 439.17C400.297 438.944 400.277 438.715 400.237 438.484L392.99 396.202L450.621 386.666L459.538 408.115C458 409.343 457.03 411.212 456.821 412.838L461.064 411.783L462.79 415.936L457.81 417.223C458.976 418.855 461.457 420.059 463.868 420.059C464.077 420.059 464.285 420.05 464.493 420.031L471.837 437.696V442.534C471.398 442.891 470.837 443.111 470.205 443.111Z" fill="#8BA5CE"/>
<path d="M450.621 386.665L448.679 381.993H455.789L457.235 385.571L450.621 386.665Z" fill="#9EB7DF"/>
<path d="M392.99 396.201L390.556 381.993H448.678L450.621 386.665L392.99 396.201Z" fill="#7E96BC"/>
<path d="M272.382 186.011H278.087H535.823H541.527C545.331 186.011 548.414 189.095 548.414 192.899V375.105C548.414 378.909 545.331 381.993 541.527 381.993H535.823H278.087H272.382C268.579 381.993 265.495 378.909 265.495 375.105V192.899C265.495 189.095 268.579 186.011 272.382 186.011Z" fill="#4C7ABC"/>
<path d="M541.527 381.993H535.823H448.679H390.556H387.811H377.444H366.034H302.99H291.58H281.214H278.087H272.382C268.579 381.993 265.495 378.909 265.495 375.105V192.899C265.495 189.095 268.579 186.011 272.382 186.011H278.087H535.823H535.922C539.676 186.063 542.706 189.124 542.706 192.901V375.109C542.706 378.908 539.624 381.989 535.826 381.989H541.53C545.33 381.989 548.41 378.908 548.41 375.109V192.901C548.41 190.647 547.332 188.648 545.664 187.392C547.335 188.648 548.414 190.647 548.414 192.899V270.795V275.269V298.059V342.796V343.129V375.105C548.414 378.909 545.331 381.993 541.527 381.993ZM271.699 368.456H431.122L536.495 368.455V305.032C536.498 305.032 536.498 305.032 536.498 305.032V192.753H299.299L271.698 192.756V368.455" fill="#C3D7EF"/>
<path d="M545.664 187.392C544.512 186.525 543.079 186.011 541.527 186.011H535.921C535.889 186.011 535.857 186.011 535.825 186.011H541.529C543.081 186.011 544.513 186.524 545.664 187.392Z" fill="#CECECE"/>
<path d="M541.529 381.989H535.825C539.624 381.989 542.705 378.908 542.705 375.109V192.901C542.705 189.124 539.676 186.063 535.921 186.011H541.527C543.079 186.011 544.512 186.525 545.664 187.392C547.332 188.648 548.409 190.647 548.409 192.901V375.109C548.409 378.908 545.329 381.989 541.529 381.989Z" fill="#9DB0CF"/>
<path d="M271.697 192.756V368.455H536.495V192.756H271.697Z" fill="#323F44"/>
<path d="M536.497 206.237H271.697V192.756H536.497V206.237Z" fill="#4C7ABC"/>
<path d="M370.967 251.918H271.697V206.31H313.401C316.028 208.736 318.811 211.251 321.736 213.834L301.464 250.212H319.832L334.184 224.458C337.363 227.082 340.665 229.739 344.089 232.418L334.173 250.212H352.543L357.021 242.176C360.361 244.606 363.795 247.034 367.313 249.443L366.884 250.212H368.44C369.275 250.779 370.123 251.352 370.967 251.918Z" fill="#80898E"/>
<path d="M277.76 208.327L271.697 219.197V208.327H277.76Z" fill="#323F44"/>
<path d="M310.471 208.327L287.223 250.04H271.697V244.931L292.092 208.327H310.471Z" fill="#323F44"/>
<path d="M319.832 250.212H301.464L324.808 208.322H343.177L319.832 250.212Z" fill="#323F44"/>
<path d="M352.543 250.212H334.174L357.519 208.322H375.887L352.543 250.212Z" fill="#323F44"/>
<path d="M385.253 250.212H366.884L390.228 208.322H408.597L385.253 250.212Z" fill="#323F44"/>
<path d="M417.964 250.212H399.595L422.939 208.322H441.308L417.964 250.212Z" fill="#323F44"/>
<path d="M450.673 249.906H432.304L455.649 208.015H474.018L450.673 249.906Z" fill="#323F44"/>
<path d="M483.384 249.906H465.015L488.36 208.015H506.728L483.384 249.906Z" fill="#323F44"/>
<path d="M536.495 208.187V213.296L516.1 249.9H497.723L520.971 208.187H536.495Z" fill="#323F44"/>
<path d="M536.495 239.344V250.04H530.533L536.495 239.344Z" fill="#323F44"/>
<path d="M536.495 368.269H431.069C429.684 363.335 427.989 357.991 425.921 352.431L441.308 325.056H422.939L417.905 334.012C415.987 330.216 413.881 326.415 411.572 322.661H536.495V368.269ZM271.697 368.269V322.661L271.699 325.061H271.697V335.84L271.699 335.839V361.351L271.697 361.353V366.42H271.699V368.269" fill="#80898E"/>
<path d="M277.76 325.062L271.697 335.84V325.062H277.76Z" fill="#323F44"/>
<path d="M310.471 325.062L287.223 366.42H271.697V361.354L292.092 325.062H310.471Z" fill="#323F44"/>
<path d="M319.832 366.591H301.464L324.808 325.056H343.177L319.832 366.591Z" fill="#323F44"/>
<path d="M352.543 366.591H334.174L357.519 325.056H375.887L352.543 366.591Z" fill="#323F44"/>
<path d="M385.253 366.591H366.884L390.228 325.056H408.597L385.253 366.591Z" fill="#323F44"/>
<path d="M417.964 366.591H399.595L422.939 325.056H441.308L417.964 366.591Z" fill="#323F44"/>
<path d="M450.674 366.286H432.306L455.65 324.752H474.019L450.674 366.286Z" fill="#323F44"/>
<path d="M483.384 366.286H465.015L488.36 324.752H506.728L483.384 366.286Z" fill="#323F44"/>
<path d="M536.495 324.924V329.989L516.1 366.281H497.723L520.971 324.924H536.495Z" fill="#323F44"/>
<path d="M536.495 355.815V366.42H530.533L536.495 355.815Z" fill="#323F44"/>
<path d="M360.232 294.068V297.86H341.964V273.503H359.745V277.296H346.488V283.629H358.248V287.352H346.488V294.068H360.232Z" fill="#FEFEFE"/>
<path d="M375.085 277.332H369.796V287.039H375.085C379.052 287.039 381.105 285.229 381.105 282.167C381.105 279.105 379.052 277.332 375.085 277.332ZM381.209 297.86L376.233 290.727C375.92 290.763 375.607 290.763 375.295 290.763H369.796V297.86H365.273V273.503H375.295C381.696 273.503 385.663 276.775 385.663 282.167C385.663 285.856 383.784 288.569 380.479 289.856L386.08 297.86H381.209Z" fill="#FEFEFE"/>
<path d="M400.516 277.332H395.227V287.039H400.516C404.483 287.039 406.535 285.229 406.535 282.167C406.535 279.105 404.483 277.332 400.516 277.332ZM406.64 297.86L401.664 290.727C401.351 290.763 401.038 290.763 400.724 290.763H395.227V297.86H390.703V273.503H400.724C407.127 273.503 411.094 276.775 411.094 282.167C411.094 285.856 409.215 288.569 405.91 289.856L411.512 297.86H406.64Z" fill="#FEFEFE"/>
<path d="M436.071 285.681C436.071 280.707 432.418 277.121 427.511 277.121C422.606 277.121 418.952 280.707 418.952 285.681C418.952 290.659 422.606 294.241 427.511 294.241C432.418 294.241 436.071 290.659 436.071 285.681ZM414.394 285.681C414.394 278.479 419.96 273.155 427.511 273.155C435.063 273.155 440.63 278.445 440.63 285.681C440.63 292.92 435.063 298.209 427.511 298.209C419.96 298.209 414.394 292.885 414.394 285.681Z" fill="#FEFEFE"/>
<path d="M455.238 277.332H449.948V287.039H455.238C459.204 287.039 461.258 285.229 461.258 282.167C461.258 279.105 459.204 277.332 455.238 277.332ZM461.362 297.86L456.386 290.727C456.074 290.763 455.76 290.763 455.447 290.763H449.948V297.86H445.426V273.503H455.447C461.85 273.503 465.816 276.775 465.816 282.167C465.816 285.856 463.938 288.569 460.632 289.856L466.234 297.86H461.362Z" fill="#FEFEFE"/>
<path d="M536.495 305.032V206.237H536.497V192.756H536.495H299.3C299.299 192.753 299.299 192.753 299.299 192.753H536.497V305.032" fill="#CADBF0"/>
<path d="M525.24 305.35C504.709 305.348 484.705 302.212 465.572 296.914L460.632 289.856C463.937 288.57 465.816 285.856 465.816 282.167C465.816 276.775 461.849 273.503 455.446 273.503H445.425V290.459C443.714 289.836 442.017 289.202 440.322 288.548C440.524 287.636 440.629 286.678 440.629 285.682C440.629 278.446 435.062 273.155 427.51 273.155C422.912 273.155 419.048 275.13 416.73 278.302C400.348 270.387 385.004 261.32 370.966 251.918H536.494V250.04V239.344V213.296V208.187V206.31H313.401C313.373 206.284 313.349 206.263 313.322 206.238H536.497L536.494 305.032C532.726 305.246 528.978 305.35 525.24 305.35ZM501.82 269.666C500.608 269.666 499.396 270.266 498.702 271.466L484.365 296.299C482.98 298.699 484.712 301.698 487.481 301.698H516.157C518.928 301.698 520.66 298.699 519.274 296.299L504.937 271.466C504.244 270.266 503.032 269.666 501.82 269.666Z" fill="#435155"/>
<path d="M536.497 206.237H313.323C308 201.32 303.305 196.768 299.299 192.753L536.497 192.756V206.237ZM527.008 196.684C525.19 196.684 523.715 198.159 523.715 199.977C523.715 201.796 525.19 203.271 527.008 203.271C528.827 203.271 530.302 201.796 530.302 199.977C530.302 198.159 528.827 196.684 527.008 196.684ZM516.137 196.684C514.319 196.684 512.844 198.159 512.844 199.977C512.844 201.796 514.319 203.271 516.137 203.271C517.956 203.271 519.429 201.796 519.429 199.977C519.429 198.159 517.956 196.684 516.137 196.684ZM505.266 196.684C503.447 196.684 501.972 198.159 501.972 199.977C501.972 201.796 503.447 203.271 505.266 203.271C507.084 203.271 508.559 201.796 508.559 199.977C508.559 198.159 507.084 196.684 505.266 196.684Z" fill="#5784C2"/>
<path d="M527.008 203.271C525.19 203.271 523.715 201.796 523.715 199.977C523.715 198.159 525.19 196.684 527.008 196.684C528.827 196.684 530.302 198.159 530.302 199.977C530.302 201.796 528.827 203.271 527.008 203.271Z" fill="#4A76B9"/>
<path d="M516.137 203.271C514.318 203.271 512.844 201.796 512.844 199.977C512.844 198.159 514.318 196.684 516.137 196.684C517.956 196.684 519.429 198.159 519.429 199.977C519.429 201.796 517.956 203.271 516.137 203.271Z" fill="#4A76B9"/>
<path d="M505.265 203.271C503.446 203.271 501.972 201.796 501.972 199.977C501.972 198.159 503.446 196.684 505.265 196.684C507.084 196.684 508.558 198.159 508.558 199.977C508.558 201.796 507.084 203.271 505.265 203.271Z" fill="#4A76B9"/>
<path d="M536.495 251.918H370.967C370.123 251.352 369.275 250.779 368.44 250.212H385.253L408.597 208.322H390.228L367.313 249.443C363.795 247.034 360.361 244.606 357.021 242.176L375.887 208.322H357.519L344.089 232.418C340.665 229.739 337.363 227.082 334.184 224.458L343.177 208.322H324.808L321.736 213.834C318.811 211.251 316.028 208.736 313.401 206.31H536.495V208.187H520.971L497.723 249.9H516.1L536.495 213.296V239.344L530.533 250.04H536.495V251.918ZM422.939 208.322L399.595 250.212H417.964L441.308 208.322H422.939ZM488.36 208.015L465.015 249.906H483.384L506.728 208.015H488.36ZM455.649 208.015L432.304 249.906H450.673L474.019 208.015H455.649Z" fill="#8C9598"/>
<path d="M334.184 224.458C329.788 220.83 325.632 217.271 321.736 213.834L324.808 208.322H343.178L334.184 224.458Z" fill="#435155"/>
<path d="M357.021 242.176C352.544 238.92 348.226 235.654 344.089 232.418L357.518 208.322H375.886L357.021 242.176Z" fill="#435155"/>
<path d="M385.253 250.212H368.44C368.061 249.955 367.689 249.7 367.313 249.443L390.228 208.322H408.597L385.253 250.212Z" fill="#435155"/>
<path d="M417.964 250.212H399.595L422.939 208.322H441.308L417.964 250.212Z" fill="#435155"/>
<path d="M450.673 249.906H432.304L455.649 208.015H474.018L450.673 249.906Z" fill="#435155"/>
<path d="M483.384 249.906H465.015L488.36 208.015H506.728L483.384 249.906Z" fill="#435155"/>
<path d="M516.1 249.9H497.723L520.971 208.187H536.495V213.296L516.1 249.9Z" fill="#435155"/>
<path d="M536.495 250.04H530.533L536.495 239.344V250.04Z" fill="#435155"/>
<path d="M459.466 295.143C456.272 294.174 453.091 293.142 449.948 292.059V290.763H455.447C455.76 290.763 456.074 290.763 456.386 290.727L459.466 295.143ZM455.238 287.039H449.948V277.332H455.238C459.204 277.332 461.258 279.106 461.258 282.167C461.258 285.23 459.204 287.039 455.238 287.039ZM436.003 286.846C430.84 284.763 425.764 282.55 420.776 280.223C422.315 278.292 424.708 277.122 427.511 277.122C432.418 277.122 436.071 280.707 436.071 285.682C436.071 286.079 436.048 286.467 436.003 286.846Z" fill="#435155"/>
<path d="M440.322 288.548C438.876 287.991 437.437 287.424 436.002 286.845C436.048 286.467 436.07 286.079 436.07 285.681C436.07 280.707 432.417 277.121 427.51 277.121C424.708 277.121 422.314 278.292 420.776 280.223C419.424 279.592 418.069 278.949 416.73 278.301C419.048 275.129 422.912 273.155 427.51 273.155C435.062 273.155 440.629 278.445 440.629 285.681C440.629 286.677 440.524 287.636 440.322 288.548Z" fill="#FEFEFE"/>
<path d="M465.572 296.913C463.523 296.347 461.495 295.757 459.466 295.143L456.386 290.727C456.074 290.763 455.76 290.763 455.447 290.763H449.948V292.059C448.434 291.537 446.928 291.004 445.426 290.459V273.503H455.447C461.85 273.503 465.816 276.775 465.816 282.167C465.816 285.856 463.938 288.569 460.632 289.856L465.572 296.913ZM449.948 277.332V287.039H455.238C459.204 287.039 461.258 285.229 461.258 282.167C461.258 279.105 459.204 277.332 455.238 277.332H449.948Z" fill="#FEFEFE"/>
<path d="M501.792 296.93C500.577 296.93 499.705 296.003 499.705 294.868C499.705 293.731 500.577 292.832 501.792 292.832C503.036 292.832 503.934 293.731 503.934 294.868C503.934 296.003 503.036 296.93 501.792 296.93ZM503.114 290.612H500.497L499.837 278.24H503.749L503.114 290.612Z" fill="#435155"/>
<path d="M516.158 301.698H487.481C484.712 301.698 482.98 298.699 484.365 296.299L498.703 271.466C499.396 270.266 500.608 269.666 501.82 269.666C503.032 269.666 504.244 270.266 504.937 271.466L519.275 296.299C520.66 298.699 518.928 301.698 516.158 301.698ZM501.792 292.832C500.577 292.832 499.705 293.731 499.705 294.868C499.705 296.003 500.577 296.93 501.792 296.93C503.036 296.93 503.935 296.003 503.935 294.868C503.935 293.731 503.036 292.832 501.792 292.832ZM499.837 278.24L500.497 290.612H503.115L503.75 278.24H499.837Z" fill="#8C9598"/>
<path d="M431.121 368.456H271.698L431.121 368.455V368.456Z" fill="#CADBF0"/>
<path d="M431.121 368.455H271.697L271.699 368.269H431.069C431.087 368.332 431.104 368.393 431.121 368.456M411.572 322.661H271.697L271.699 260.171C277.48 259.408 284.533 258.813 292.487 258.813C310.82 258.813 333.928 261.971 357.236 273.503H341.964V297.86H360.232V294.068H346.488V287.352H358.248V283.629H346.488V277.296H359.745V274.775C361.588 275.735 363.431 276.748 365.273 277.816V297.86H369.796V290.763H375.295C375.607 290.763 375.92 290.763 376.233 290.727L381.209 297.86H386.08L380.479 289.856C380.989 289.657 381.465 289.425 381.905 289.16C384.313 291.069 386.707 293.092 389.079 295.232C389.625 295.727 390.168 296.227 390.703 296.729V297.86H391.889C399.703 305.425 406.191 313.915 411.572 322.661ZM306.377 269.665C305.165 269.665 303.953 270.265 303.261 271.465L288.924 296.299C287.539 298.699 289.269 301.697 292.04 301.697H320.716C323.487 301.697 325.217 298.699 323.833 296.299L309.495 271.465C308.803 270.265 307.591 269.665 306.377 269.665Z" fill="#435155"/>
<path d="M431.069 368.269H271.697L271.699 366.42H287.223L310.471 325.061H292.092L271.699 361.351V335.839L277.76 325.061H271.699V322.661H411.572C413.881 326.415 415.987 330.216 417.905 334.012L399.595 366.591H417.964L425.921 352.431C427.989 357.991 429.684 363.335 431.069 368.269ZM390.228 325.056L366.884 366.591H385.253L408.597 325.056H390.228ZM357.519 325.056L334.173 366.591H352.543L375.887 325.056H357.519ZM324.808 325.056L301.464 366.591H319.832L343.177 325.056H324.808Z" fill="#8C9598"/>
<path d="M271.698 335.839V325.062H277.76L271.698 335.839Z" fill="#435155"/>
<path d="M287.222 366.42H271.698V361.351L292.092 325.062H310.47L287.222 366.42Z" fill="#435155"/>
<path d="M319.832 366.591H301.464L324.808 325.056H343.177L319.832 366.591Z" fill="#435155"/>
<path d="M352.543 366.591H334.174L357.519 325.056H375.887L352.543 366.591Z" fill="#435155"/>
<path d="M375.085 287.039H369.796V280.56C372.675 282.383 375.54 284.345 378.391 286.464C377.503 286.84 376.399 287.039 375.085 287.039Z" fill="#435155"/>
<path d="M385.253 366.591H366.884L390.228 325.056H408.597L385.253 366.591Z" fill="#435155"/>
<path d="M417.964 366.591H399.595L417.905 334.012C421.057 340.246 423.704 346.463 425.921 352.431L417.964 366.591Z" fill="#435155"/>
<path d="M360.232 297.86H341.964V273.503H357.236C358.072 273.915 358.909 274.34 359.745 274.775V277.296H346.488V283.629H358.248V287.352H346.488V294.068H360.232V297.86Z" fill="#FEFEFE"/>
<path d="M386.08 297.86H381.209L376.233 290.727C375.92 290.763 375.607 290.763 375.295 290.763H369.796V297.86H365.273V277.816C366.78 278.692 368.292 279.608 369.796 280.56V287.039H375.085C376.399 287.039 377.503 286.84 378.391 286.464C379.567 287.338 380.737 288.235 381.905 289.16C381.465 289.425 380.989 289.657 380.479 289.856L386.08 297.86Z" fill="#FEFEFE"/>
<path d="M391.89 297.86H390.703V296.729C391.103 297.104 391.496 297.48 391.89 297.86Z" fill="#FEFEFE"/>
<path d="M306.35 296.93C305.134 296.93 304.264 296.003 304.264 294.868C304.264 293.731 305.134 292.832 306.35 292.832C307.593 292.832 308.492 293.731 308.492 294.868C308.492 296.003 307.593 296.93 306.35 296.93ZM307.672 290.612H305.056L304.394 278.24H308.306L307.672 290.612Z" fill="#435155"/>
<path d="M320.716 301.698H292.04C289.27 301.698 287.539 298.699 288.924 296.299L303.262 271.466C303.954 270.266 305.166 269.666 306.378 269.666C307.591 269.666 308.803 270.266 309.495 271.466L323.834 296.299C325.218 298.699 323.487 301.698 320.716 301.698ZM306.351 292.832C305.135 292.832 304.264 293.731 304.264 294.868C304.264 296.003 305.135 296.93 306.351 296.93C307.594 296.93 308.492 296.003 308.492 294.868C308.492 293.731 307.594 292.832 306.351 292.832ZM304.395 278.24L305.056 290.612H307.672L308.307 278.24H304.395Z" fill="#8C9598"/>
<path d="M498.661 440.727L503.413 442.805C501.746 444.475 498.526 445.584 495.808 444.395C492.724 443.044 491.276 439.549 492.166 436.387C492.476 435.287 493.032 434.364 493.902 433.572L481.004 400.592C476.361 400.788 474.397 396.443 474.506 393.449L479.225 395.543C480.337 396.029 481.617 395.529 482.105 394.417C482.592 393.305 482.077 392.012 480.965 391.525L476.209 389.447C477.876 387.779 481.093 386.671 483.812 387.86C486.894 389.209 488.534 392.631 487.644 395.792C487.334 396.892 486.969 397.74 486.098 398.531L498.997 431.512C502.617 431.717 505.412 435.737 505.304 438.728L500.488 436.673C499.376 436.187 498.048 436.707 497.561 437.819C497.074 438.931 497.549 440.239 498.661 440.727Z" fill="#4C7ABC"/>
<path d="M496.548 425.251H493.302L488.423 419.561L487.812 418H493.714L496.548 425.251ZM492.248 414.255H486.348L481.004 400.592C480.903 400.596 480.802 400.599 480.703 400.599C476.396 400.599 474.504 396.604 474.503 393.693C474.503 393.611 474.504 393.529 474.507 393.449L479.226 395.543C479.515 395.669 479.815 395.729 480.11 395.729C480.95 395.729 481.744 395.241 482.106 394.417C482.231 394.131 482.29 393.832 482.288 393.539C482.287 392.692 481.791 391.887 480.966 391.525L476.21 389.447C477.391 388.264 479.354 387.363 481.363 387.363C482.188 387.363 483.022 387.513 483.812 387.86C486.33 388.961 487.884 391.444 487.886 394.039C487.886 394.623 487.808 395.212 487.644 395.792C487.335 396.892 486.97 397.74 486.099 398.531L487.948 403.259H485.032V407.003H488.674L490.159 408.909L492.248 414.255Z" fill="#6791CA"/>
<path d="M461.856 411.587L456.821 412.837C457.123 410.499 458.999 407.656 461.879 406.94C465.144 406.128 468.425 408.013 469.649 411.063C470.073 412.121 470.196 413.194 469.989 414.351L500.332 432.615C503.889 429.624 508.099 431.871 509.837 434.307L504.82 435.528C503.643 435.821 502.935 437 503.227 438.176C503.52 439.355 504.716 440.064 505.893 439.773L510.931 438.518C510.628 440.858 508.755 443.697 505.875 444.413C502.609 445.225 499.221 443.515 497.999 440.467C497.573 439.407 497.344 438.511 497.552 437.354L467.209 419.092C464.219 421.139 459.549 419.659 457.811 417.223L462.88 415.912C464.057 415.619 464.793 414.396 464.5 413.22C464.208 412.042 463.033 411.294 461.856 411.587Z" fill="#4C7ABC"/>
<path d="M488.099 425.251H477.443L471.916 421.924L467.209 419.092C466.397 419.648 465.461 419.944 464.493 420.031C464.285 420.049 464.077 420.059 463.868 420.059C461.457 420.059 458.976 418.855 457.811 417.223L462.88 415.912C463.883 415.663 464.565 414.739 464.565 413.744C464.565 413.569 464.544 413.395 464.5 413.22C464.251 412.215 463.36 411.523 462.372 411.523C462.201 411.523 462.029 411.544 461.856 411.587L456.821 412.837C457.123 410.499 458.999 407.656 461.879 406.94C462.392 406.812 462.908 406.751 463.415 406.751C466.127 406.751 468.617 408.493 469.649 411.063C469.937 411.783 470.087 412.508 470.088 413.263C470.088 413.619 470.056 413.98 469.989 414.351L488.099 425.251Z" fill="#6791CA"/>
<path d="M563.853 396.405L563.849 396.417L563.931 396.201H517.036L506.04 425.251H552.735L552.705 425.325H556.565L566.457 399.423L563.853 396.405Z" fill="#323F44"/>
<path d="M556.565 425.325H552.934V425.251L563.93 396.201L563.849 396.417L563.853 396.405L566.457 399.423L565.246 402.595L565.118 402.928L557.05 424.056L556.922 424.389L556.565 425.325Z" fill="#566368"/>
<path d="M552.935 425.251H552.735H506.04L508.785 418H526.537H555.133V414.255H510.203L512.948 407.003H530.936H559.532V403.259H514.365L517.036 396.201H563.931L552.935 425.251Z" fill="#3C4345"/>
<path d="M482.53 416.533L493.382 430.475L497.277 429.889L485.828 416.533H482.53Z" fill="#323F44"/>
<path d="M493.301 425.251H489.316L483.672 418H487.084L493.301 425.251Z" fill="#435155"/>
<path d="M485.828 403.347L496.68 417.287L500.575 416.703L489.124 403.347H485.828Z" fill="#323F44"/>
<path d="M498.476 414.255H494.319L488.674 407.003H492.259L498.476 414.255Z" fill="#435155"/>
<path d="M471.837 425.251H552.934V448.927H471.837V425.251Z" fill="#323F44"/>
<path d="M521.038 448.927H471.837V425.251H552.934H521.038V448.927Z" fill="#566368"/>
<path d="M480.635 414.255H555.133V418H480.635V414.255Z" fill="#323F44"/>
<path d="M526.537 418H493.713H487.812H487.084H483.672H480.635V414.255H555.133H526.537V418Z" fill="#566368"/>
<path d="M555.133 418H526.537V414.255H555.133V418Z" fill="#485256"/>
<path d="M485.032 403.259H559.532V407.003H485.032V403.259Z" fill="#323F44"/>
<path d="M530.936 407.003H492.259H488.674H485.032V403.259H559.532H530.936V407.003Z" fill="#566368"/>
<path d="M559.532 407.003H530.936V403.259H559.532V407.003Z" fill="#485256"/>
<path d="M552.935 448.927H521.039V425.251H552.935V425.325V448.927Z" fill="#485256"/>
</svg>
